Dinish-Regular.ufo
<glyph name="parenleft" format="2">
  <advance width="294"/>
  <unicode hex="0028"/>
  <outline>
    <contour>
      <point x="60" y="336" type="curve" smooth="yes"/>
      <point x="60" y="485"/>
      <point x="101" y="626"/>
      <point x="182" y="758" type="curve"/>
      <point x="234" y="758" type="line"/>
      <point x="200" y="691"/>
      <point x="174" y="622"/>
      <point x="157" y="550" type="curve" smooth="yes"/>
      <point x="140" y="478"/>
      <point x="131" y="407"/>
      <point x="131" y="336" type="curve" smooth="yes"/>
      <point x="131" y="264"/>
      <point x="140" y="192"/>
      <point x="157" y="120" type="curve" smooth="yes"/>
      <point x="174" y="48"/>
      <point x="200" y="-20"/>
      <point x="234" y="-86" type="curve"/>
      <point x="181" y="-86" type="line"/>
      <point x="100" y="48"/>
      <point x="60" y="189"/>
    </contour>
  </outline>
</glyph>
<glyph name="one" format="2">
  <advance width="336"/>
  <unicode hex="0031"/>
  <outline>
    <contour>
      <point x="173" y="621" type="line"/>
      <point x="51" y="529" type="line"/>
      <point x="51" y="613" type="line"/>
      <point x="172" y="707" type="line"/>
      <point x="247" y="707" type="line"/>
      <point x="247" y="0" type="line"/>
      <point x="173" y="0" type="line"/>
    </contour>
  </outline>
</glyph>
<glyph name="one.osf" format="2">
  <advance width="336"/>
  <unicode hex="0031"/>
  <outline>
    <contour>
      <point x="173" y="433" type="line"/>
      <point x="51" y="341" type="line"/>
      <point x="51" y="425" type="line"/>
      <point x="172" y="519" type="line"/>
      <point x="247" y="519" type="line"/>
      <point x="247" y="0" type="line"/>
      <point x="173" y="0" type="line"/>
    </contour>
  </outline>
</glyph>
<glyph name="one.tlf" format="2">
  <advance width="524"/>
  <unicode hex="0031"/>
  <outline>
    <contour>
      <point x="286" y="621" type="line"/>
      <point x="86" y="500" type="line"/>
      <point x="86" y="586" type="line"/>
      <point x="285" y="707" type="line"/>
      <point x="360" y="707" type="line"/>
      <point x="360" y="0" type="line"/>
      <point x="286" y="0" type="line"/>
    </contour>
  </outline>
</glyph>
<glyph name="one.tosf" format="2">
  <advance width="524"/>
  <unicode hex="0031"/>
  <outline>
    <contour>
      <point x="310" y="433" type="line"/>
      <point x="110" y="312" type="line"/>
      <point x="110" y="398" type="line"/>
      <point x="309" y="519" type="line"/>
      <point x="384" y="519" type="line"/>
      <point x="384" y="0" type="line"/>
      <point x="310" y="0" type="line"/>
    </contour>
  </outline>
</glyph>
<glyph name="two" format="2">
  <advance width="479"/>
  <unicode hex="0032"/>
  <outline>
    <contour>
      <point x="60" y="60" type="line"/>
      <point x="298.431" y="400" type="line" smooth="yes"/>
      <point x="328.792" y="443.296"/>
      <point x="343" y="485.011"/>
      <point x="343" y="530.862" type="curve" smooth="yes"/>
      <point x="343" y="606.633"/>
      <point x="303.851" y="650"/>
      <point x="235.45" y="650" type="curve" smooth="yes"/>
      <point x="167.698" y="650"/>
      <point x="135.725" y="607.24"/>
      <point x="136" y="517" type="curve"/>
      <point x="60" y="517" type="line"/>
      <point x="60" y="540" type="line" smooth="yes"/>
      <point x="60" y="646.133"/>
      <point x="133.222" y="717"/>
      <point x="241.879" y="717" type="curve" smooth="yes"/>
      <point x="350.963" y="717"/>
      <point x="419" y="645.575"/>
      <point x="419" y="532.113" type="curve" smooth="yes"/>
      <point x="419" y="474.252"/>
      <point x="401.312" y="425.436"/>
      <point x="357" y="361" type="curve" smooth="yes"/>
      <point x="154.818" y="67" type="line"/>
      <point x="419" y="67" type="line"/>
      <point x="419" y="0" type="line"/>
      <point x="60" y="0" type="line"/>
    </contour>
  </outline>
</glyph>
<glyph name="three.tosf" format="2">
  <advance width="524"/>
  <unicode hex="0033"/>
  <outline>
    <contour>
      <point x="121" y="-117" type="curve" smooth="yes"/>
      <point x="88" y="-87"/>
      <point x="70" y="-45"/>
      <point x="70" y="7" type="curve" smooth="yes"/>
      <point x="70" y="23" type="line"/>
      <point x="145" y="23" type="line"/>
      <point x="145" y="10" type="line" smooth="yes"/>
      <point x="145" y="-23"/>
      <point x="155" y="-49"/>
      <point x="175" y="-68" type="curve" smooth="yes"/>
      <point x="195" y="-87"/>
      <point x="223" y="-96"/>
      <point x="257" y="-96" type="curve" smooth="yes"/>
      <point x="293" y="-96"/>
      <point x="321" y="-84"/>
      <point x="342" y="-62" type="curve" smooth="yes"/>
      <point x="363" y="-40"/>
      <point x="373" y="-21"/>
      <point x="373" y="17" type="curve" smooth="yes"/>
      <point x="373" y="46" type="line" smooth="yes"/>
      <point x="373" y="85"/>
      <point x="363" y="106"/>
      <point x="340" y="128" type="curve" smooth="yes"/>
      <point x="317" y="150"/>
      <point x="290" y="163"/>
      <point x="252" y="163" type="curve" smooth="yes"/>
      <point x="215" y="163" type="line"/>
      <point x="215" y="230" type="line"/>
      <point x="251" y="230" type="line" smooth="yes"/>
      <point x="285" y="230"/>
      <point x="311" y="241"/>
      <point x="332" y="263" type="curve" smooth="yes"/>
      <point x="353" y="285"/>
      <point x="361" y="302"/>
      <point x="361" y="337" type="curve" smooth="yes"/>
      <point x="361" y="360" type="line" smooth="yes"/>
      <point x="361" y="394"/>
      <point x="353" y="413"/>
      <point x="333" y="432" type="curve" smooth="yes"/>
      <point x="313" y="451"/>
      <point x="288" y="462"/>
      <point x="255" y="462" type="curve" smooth="yes"/>
      <point x="222" y="462"/>
      <point x="196" y="453"/>
      <point x="178" y="434" type="curve" smooth="yes"/>
      <point x="160" y="415"/>
      <point x="150" y="389"/>
      <point x="150" y="357" type="curve" smooth="yes"/>
      <point x="150" y="340" type="line"/>
      <point x="79" y="340" type="line"/>
      <point x="79" y="359" type="line" smooth="yes"/>
      <point x="79" y="411"/>
      <point x="94" y="452"/>
      <point x="126" y="483" type="curve" smooth="yes"/>
      <point x="158" y="514"/>
      <point x="202" y="529"/>
      <point x="257" y="529" type="curve" smooth="yes"/>
      <point x="312" y="529"/>
      <point x="355" y="513"/>
      <point x="387" y="481" type="curve" smooth="yes"/>
      <point x="419" y="449"/>
      <point x="435" y="417"/>
      <point x="435" y="364" type="curve" smooth="yes"/>
      <point x="435" y="339" type="line" smooth="yes"/>
      <point x="435" y="305"/>
      <point x="426" y="285"/>
      <point x="410" y="260" type="curve" smooth="yes"/>
      <point x="394" y="235"/>
      <point x="373" y="216"/>
      <point x="346" y="204" type="curve"/>
      <point x="379" y="192"/>
      <point x="404" y="171"/>
      <point x="421" y="142" type="curve" smooth="yes"/>
      <point x="438" y="113"/>
      <point x="447" y="88"/>
      <point x="447" y="48" type="curve" smooth="yes"/>
      <point x="447" y="21" type="line" smooth="yes"/>
      <point x="447" y="-38"/>
      <point x="430" y="-75"/>
      <point x="395" y="-110" type="curve" smooth="yes"/>
      <point x="360" y="-145"/>
      <point x="313" y="-162"/>
      <point x="256" y="-162" type="curve" smooth="yes"/>
      <point x="199" y="-162"/>
      <point x="154" y="-147"/>
    </contour>
  </outline>
</glyph>
<glyph name="four.tosf" format="2">
  <advance width="524"/>
  <unicode hex="0034"/>
  <outline>
    <contour>
      <point x="476" y="-22" type="line"/>
      <point x="399" y="-22" type="line"/>
      <point x="399" y="-160" type="line"/>
      <point x="324" y="-160" type="line"/>
      <point x="324" y="-22" type="line"/>
      <point x="59" y="-22" type="line"/>
      <point x="59" y="46" type="line"/>
      <point x="271" y="519" type="line"/>
      <point x="346" y="519" type="line"/>
      <point x="134" y="46" type="line"/>
      <point x="324" y="46" type="line"/>
      <point x="324" y="238" type="line"/>
      <point x="399" y="238" type="line"/>
      <point x="399" y="46" type="line"/>
      <point x="476" y="46" type="line"/>
    </contour>
  </outline>
</glyph>
<glyph name="five.tosf" format="2">
  <advance width="524"/>
  <unicode hex="0035"/>
  <outline>
    <contour>
      <point x="127" y="-128" type="curve" smooth="yes"/>
      <point x="95" y="-99"/>
      <point x="80" y="-59"/>
      <point x="80" y="-8" type="curve" smooth="yes"/>
      <point x="80" y="5" type="line"/>
      <point x="151" y="5" type="line"/>
      <point x="151" y="-2" type="line" smooth="yes"/>
      <point x="151" y="-35"/>
      <point x="161" y="-60"/>
      <point x="179" y="-78" type="curve" smooth="yes"/>
      <point x="197" y="-96"/>
      <point x="224" y="-105"/>
      <point x="258" y="-105" type="curve" smooth="yes"/>
      <point x="330" y="-105"/>
      <point x="365" y="-61"/>
      <point x="365" y="28" type="curve" smooth="yes"/>
      <point x="365" y="85" type="line" smooth="yes"/>
      <point x="365" y="130"/>
      <point x="356" y="164"/>
      <point x="339" y="186" type="curve" smooth="yes"/>
      <point x="322" y="208"/>
      <point x="295" y="219"/>
      <point x="259" y="219" type="curve" smooth="yes"/>
      <point x="234" y="219"/>
      <point x="212" y="213"/>
      <point x="194" y="200" type="curve" smooth="yes"/>
      <point x="176" y="187"/>
      <point x="164" y="170"/>
      <point x="156" y="147" type="curve"/>
      <point x="91" y="147" type="line"/>
      <point x="91" y="519" type="line"/>
      <point x="429" y="519" type="line"/>
      <point x="429" y="450" type="line"/>
      <point x="159" y="450" type="line"/>
      <point x="159" y="241" type="line"/>
      <point x="171" y="255"/>
      <point x="188" y="265"/>
      <point x="207" y="274" type="curve" smooth="yes"/>
      <point x="226" y="283"/>
      <point x="246" y="287"/>
      <point x="269" y="287" type="curve" smooth="yes"/>
      <point x="326" y="287"/>
      <point x="368" y="270"/>
      <point x="397" y="236" type="curve" smooth="yes"/>
      <point x="426" y="202"/>
      <point x="440" y="152"/>
      <point x="440" y="89" type="curve" smooth="yes"/>
      <point x="440" y="22" type="line" smooth="yes"/>
      <point x="440" y="-39"/>
      <point x="424" y="-87"/>
      <point x="392" y="-121" type="curve" smooth="yes"/>
      <point x="360" y="-155"/>
      <point x="316" y="-172"/>
      <point x="259" y="-172" type="curve" smooth="yes"/>
      <point x="203" y="-172"/>
      <point x="159" y="-157"/>
    </contour>
  </outline>
</glyph>
<glyph name="C" format="2">
  <advance width="619"/>
  <unicode hex="0043"/>
  <anchor x="316" y="707" name="top"/>
  <outline>
    <contour>
      <point x="68" y="262" type="curve" smooth="yes"/>
      <point x="68" y="445" type="line" smooth="yes"/>
      <point x="68" y="608.983"/>
      <point x="143.021" y="716"/>
      <point x="316" y="716" type="curve" smooth="yes"/>
      <point x="450.01" y="716"/>
      <point x="557.614" y="638.972"/>
      <point x="557" y="497" type="curve"/>
      <point x="482" y="497" type="line"/>
      <point x="483.15" y="597.958"/>
      <point x="410.778" y="648"/>
      <point x="316" y="648" type="curve" smooth="yes"/>
      <point x="183.217" y="648"/>
      <point x="142" y="561.824"/>
      <point x="142" y="442" type="curve" smooth="yes"/>
      <point x="142" y="258" type="line" smooth="yes"/>
      <point x="142" y="139.798"/>
      <point x="189.585" y="60"/>
      <point x="317" y="60" type="curve" smooth="yes"/>
      <point x="412.125" y="60"/>
      <point x="483.116" y="111.443"/>
      <point x="482" y="212" type="curve"/>
      <point x="555" y="212" type="line"/>
      <point x="555" y="208" type="line" smooth="yes"/>
      <point x="555" y="65.86"/>
      <point x="450.072" y="-8"/>
      <point x="316" y="-8" type="curve" smooth="yes"/>
      <point x="143.623" y="-8"/>
      <point x="68" y="98.224"/>
    </contour>
  </outline>
</glyph>
<glyph name="K" format="2">
  <advance width="612"/>
  <unicode hex="004B"/>
  <anchor x="295" y="707" name="top"/>
  <outline>
    <contour>
      <point x="301" y="373" type="line"/>
      <point x="157" y="195" type="line"/>
      <point x="157" y="0" type="line"/>
      <point x="82" y="0" type="line"/>
      <point x="82" y="707" type="line"/>
      <point x="157" y="707" type="line"/>
      <point x="157" y="295" type="line"/>
      <point x="483" y="707" type="line"/>
      <point x="572" y="707" type="line"/>
      <point x="349" y="431" type="line"/>
      <point x="604" y="0" type="line"/>
      <point x="517" y="0" type="line"/>
    </contour>
  </outline>
</glyph>
<glyph name="Z" format="2">
  <advance width="528"/>
  <unicode hex="005A"/>
  <anchor x="288" y="707" name="top"/>
  <outline>
    <contour>
      <point x="492" y="68" type="line"/>
      <point x="492" y="0" type="line"/>
      <point x="41" y="0" type="line"/>
      <point x="41" y="68" type="line"/>
      <point x="403" y="639" type="line"/>
      <point x="54" y="639" type="line"/>
      <point x="54" y="707" type="line"/>
      <point x="488" y="707" type="line"/>
      <point x="488" y="639" type="line"/>
      <point x="126" y="68" type="line"/>
    </contour>
  </outline>
</glyph>
<glyph name="a" format="2">
  <advance width="508"/>
  <unicode hex="0061"/>
  <anchor x="253" y="519" name="top"/>
  <outline>
    <contour>
      <point x="432" y="353" type="curve" smooth="yes"/>
      <point x="432" y="0" type="line"/>
      <point x="364" y="0" type="line"/>
      <point x="364" y="55" type="line"/>
      <point x="330.092" y="11.113"/>
      <point x="273.611" y="-6"/>
      <point x="220" y="-6" type="curve" smooth="yes"/>
      <point x="122.658" y="-6"/>
      <point x="48" y="41.357"/>
      <point x="48" y="146" type="curve" smooth="yes"/>
      <point x="48" y="279.543"/>
      <point x="164.592" y="297.101"/>
      <point x="271.531" y="297.101" type="curve" smooth="yes"/>
      <point x="301.702" y="297.101"/>
      <point x="331.842" y="295.66"/>
      <point x="362" y="295" type="curve"/>
      <point x="362" y="354" type="line" smooth="yes"/>
      <point x="362" y="427.869"/>
      <point x="317.732" y="468"/>
      <point x="245" y="468" type="curve" smooth="yes"/>
      <point x="187.852" y="468"/>
      <point x="131" y="440.632"/>
      <point x="131" y="375" type="curve"/>
      <point x="63" y="375" type="line"/>
      <point x="63" y="380" type="line" smooth="yes"/>
      <point x="63" y="481.824"/>
      <point x="153.699" y="526"/>
      <point x="244" y="526" type="curve" smooth="yes"/>
      <point x="354.609" y="526"/>
      <point x="432" y="469.161"/>
    </contour>
    <contour>
      <point x="362" y="176" type="curve" smooth="yes"/>
      <point x="362" y="244" type="line"/>
      <point x="232" y="244" type="line" smooth="yes"/>
      <point x="168.136" y="244"/>
      <point x="118" y="217.261"/>
      <point x="118" y="147" type="curve" smooth="yes"/>
      <point x="118" y="76.435"/>
      <point x="166.574" y="50"/>
      <point x="231" y="50" type="curve" smooth="yes"/>
      <point x="315.249" y="50"/>
      <point x="362" y="89.726"/>
    </contour>
  </outline>
</glyph>
<glyph name="d" format="2">
  <advance width="523"/>
  <unicode hex="0064"/>
  <anchor x="410" y="707" name="top"/>
  <outline>
    <contour>
      <point x="60" y="207" type="curve" smooth="yes"/>
      <point x="60" y="313" type="line" smooth="yes"/>
      <point x="60" y="428.247"/>
      <point x="108.649" y="526"/>
      <point x="237" y="526" type="curve" smooth="yes"/>
      <point x="297.052" y="526"/>
      <point x="346.491" y="498.741"/>
      <point x="376" y="446" type="curve"/>
      <point x="376" y="707" type="line"/>
      <point x="446" y="707" type="line"/>
      <point x="446" y="0" type="line"/>
      <point x="376" y="0" type="line"/>
      <point x="376" y="69" type="line"/>
      <point x="346.9" y="16.637"/>
      <point x="294.114" y="-6"/>
      <point x="236" y="-6" type="curve" smooth="yes"/>
      <point x="109.546" y="-6"/>
      <point x="60" y="93.721"/>
    </contour>
    <contour>
      <point x="376" y="212" type="curve" smooth="yes"/>
      <point x="376" y="303" type="line" smooth="yes"/>
      <point x="376" y="384.063"/>
      <point x="342.879" y="463"/>
      <point x="250" y="463" type="curve" smooth="yes"/>
      <point x="156.867" y="463"/>
      <point x="131" y="389.144"/>
      <point x="131" y="309" type="curve" smooth="yes"/>
      <point x="131" y="211" type="line" smooth="yes"/>
      <point x="131" y="133.517"/>
      <point x="154.021" y="56"/>
      <point x="246" y="56" type="curve" smooth="yes"/>
      <point x="338.565" y="56"/>
      <point x="376" y="128.69"/>
    </contour>
  </outline>
</glyph>
<glyph name="l" format="2">
  <advance width="279"/>
  <unicode hex="006C"/>
  <anchor x="111" y="707" name="top"/>
  <outline>
    <contour>
      <point x="77" y="136" type="curve" smooth="yes"/>
      <point x="77" y="707" type="line"/>
      <point x="146" y="707" type="line"/>
      <point x="146" y="140" type="line" smooth="yes"/>
      <point x="146" y="69.513"/>
      <point x="190.054" y="62.755"/>
      <point x="254" y="63" type="curve"/>
      <point x="254" y="0" type="line"/>
      <point x="205" y="0" type="line" smooth="yes"/>
      <point x="119.529" y="0"/>
      <point x="77" y="53.548"/>
    </contour>
  </outline>
</glyph>
<glyph name="o" format="2">
  <advance width="517"/>
  <unicode hex="006F"/>
  <anchor x="260" y="519" name="top"/>
  <outline>
    <contour>
      <point x="60" y="207" type="curve" smooth="yes"/>
      <point x="60" y="313" type="line" smooth="yes"/>
      <point x="60" y="442.747"/>
      <point x="125.264" y="526"/>
      <point x="260" y="526" type="curve" smooth="yes"/>
      <point x="394.46" y="526"/>
      <point x="457" y="441.311"/>
      <point x="457" y="313" type="curve" smooth="yes"/>
      <point x="457" y="207" type="line" smooth="yes"/>
      <point x="457" y="78.689"/>
      <point x="394.46" y="-6"/>
      <point x="260" y="-6" type="curve" smooth="yes"/>
      <point x="125.264" y="-6"/>
      <point x="60" y="77.253"/>
    </contour>
    <contour>
      <point x="387" y="211" type="curve" smooth="yes"/>
      <point x="387" y="309" type="line" smooth="yes"/>
      <point x="387" y="395.009"/>
      <point x="356.486" y="463"/>
      <point x="260" y="463" type="curve" smooth="yes"/>
      <point x="163.155" y="463"/>
      <point x="130" y="396.523"/>
      <point x="130" y="309" type="curve" smooth="yes"/>
      <point x="130" y="211" type="line" smooth="yes"/>
      <point x="130" y="124.116"/>
      <point x="163.552" y="56"/>
      <point x="260" y="56" type="curve" smooth="yes"/>
      <point x="356.075" y="56"/>
      <point x="387" y="125.623"/>
    </contour>
  </outline>
</glyph>
<glyph name="u" format="2">
  <advance width="534"/>
  <unicode hex="0075"/>
  <outline>
    <contour>
      <point x="124" y="45" type="curve" smooth="yes"/>
      <point x="92" y="79"/>
      <point x="77" y="127"/>
      <point x="77" y="190" type="curve" smooth="yes"/>
      <point x="77" y="519" type="line"/>
      <point x="146" y="519" type="line"/>
      <point x="146" y="200" type="line" smooth="yes"/>
      <point x="146" y="152"/>
      <point x="156" y="116"/>
      <point x="174" y="92" type="curve" smooth="yes"/>
      <point x="192" y="68"/>
      <point x="223" y="56"/>
      <point x="267" y="56" type="curve" smooth="yes"/>
      <point x="311" y="56"/>
      <point x="342" y="68"/>
      <point x="360" y="91" type="curve" smooth="yes"/>
      <point x="378" y="114"/>
      <point x="388" y="151"/>
      <point x="388" y="200" type="curve" smooth="yes"/>
      <point x="388" y="519" type="line"/>
      <point x="458" y="519" type="line"/>
      <point x="458" y="190" type="line" smooth="yes"/>
      <point x="458" y="127"/>
      <point x="442" y="79"/>
      <point x="410" y="45" type="curve" smooth="yes"/>
      <point x="378" y="11"/>
      <point x="330" y="-6"/>
      <point x="266" y="-6" type="curve" smooth="yes"/>
      <point x="203" y="-6"/>
      <point x="156" y="11"/>
    </contour>
  </outline>
</glyph>
<glyph name="section" format="2">
  <advance width="523"/>
  <unicode hex="00A7"/>
  <outline>
    <contour>
      <point x="95" y="-4" type="curve"/>
      <point x="166" y="-4" type="line"/>
      <point x="165.938" y="-68.845"/>
      <point x="190.224" y="-106"/>
      <point x="259" y="-106" type="curve" smooth="yes"/>
      <point x="317.332" y="-106"/>
      <point x="351" y="-75.196"/>
      <point x="351" y="-16" type="curve" smooth="yes"/>
      <point x="351" y="154.673"/>
      <point x="82" y="23.665"/>
      <point x="82" y="282" type="curve" smooth="yes"/>
      <point x="82" y="355.951"/>
      <point x="111.46" y="418.669"/>
      <point x="184" y="445" type="curve"/>
      <point x="127.454" y="472.283"/>
      <point x="104" y="518.497"/>
      <point x="104" y="580" type="curve" smooth="yes"/>
      <point x="104" y="674.37"/>
      <point x="172.902" y="731"/>
      <point x="264" y="731" type="curve" smooth="yes"/>
      <point x="367.055" y="731"/>
      <point x="423.028" y="672.58"/>
      <point x="423" y="570" type="curve"/>
      <point x="352" y="570" type="line"/>
      <point x="352.061" y="628.409"/>
      <point x="326.61" y="666"/>
      <point x="265" y="666" type="curve" smooth="yes"/>
      <point x="211.229" y="666"/>
      <point x="178" y="634.07"/>
      <point x="178" y="580" type="curve" smooth="yes"/>
      <point x="178" y="407.873"/>
      <point x="441" y="540.548"/>
      <point x="441" y="282" type="curve" smooth="yes"/>
      <point x="441" y="213.592"/>
      <point x="411.848" y="142.513"/>
      <point x="342" y="120" type="curve"/>
      <point x="402.143" y="93.071"/>
      <point x="425" y="45.969"/>
      <point x="425" y="-18" type="curve" smooth="yes"/>
      <point x="425" y="-115.23"/>
      <point x="353.482" y="-172"/>
      <point x="260" y="-172" type="curve" smooth="yes"/>
      <point x="149.726" y="-172"/>
      <point x="94.969" y="-113.312"/>
    </contour>
    <contour>
      <point x="368" y="282" type="curve" smooth="yes"/>
      <point x="368" y="350.506"/>
      <point x="335.134" y="401"/>
      <point x="262" y="401" type="curve" smooth="yes"/>
      <point x="188.594" y="401"/>
      <point x="156" y="350.561"/>
      <point x="156" y="282" type="curve" smooth="yes"/>
      <point x="156" y="213.439"/>
      <point x="188.594" y="163"/>
      <point x="262" y="163" type="curve" smooth="yes"/>
      <point x="333.793" y="163"/>
      <point x="368" y="214.7"/>
    </contour>
  </outline>
</glyph>
<glyph name="mu" format="2">
  <advance width="527"/>
  <unicode hex="00B5"/>
  <outline>
    <contour>
      <point x="77" y="519" type="line"/>
      <point x="146" y="519" type="line"/>
      <point x="146" y="182" type="line" smooth="yes"/>
      <point x="146" y="108.736"/>
      <point x="183.029" y="55"/>
      <point x="261" y="55" type="curve" smooth="yes"/>
      <point x="336.062" y="55"/>
      <point x="380" y="110.26"/>
      <point x="380" y="182" type="curve" smooth="yes"/>
      <point x="380" y="519" type="line"/>
      <point x="451" y="519" type="line"/>
      <point x="451" y="0" type="line"/>
      <point x="381" y="0" type="line"/>
      <point x="381" y="61" type="line"/>
      <point x="351.598" y="12.658"/>
      <point x="304.307" y="-8"/>
      <point x="249" y="-8" type="curve" smooth="yes"/>
      <point x="210.141" y="-8"/>
      <point x="172.998" y="2.828"/>
      <point x="146" y="32" type="curve"/>
      <point x="146" y="-156" type="line"/>
      <point x="77" y="-156" type="line"/>
    </contour>
  </outline>
</glyph>
<glyph name="threequarters" format="2">
  <advance width="846"/>
  <unicode hex="00BE"/>
  <outline>
    <contour>
      <point x="40" y="394" type="curve"/>
      <point x="101" y="394" type="line"/>
      <point x="101" y="355.264"/>
      <point x="117.381" y="330"/>
      <point x="159" y="330" type="curve" smooth="yes"/>
      <point x="208.647" y="330"/>
      <point x="217" y="365.836"/>
      <point x="217" y="407" type="curve" smooth="yes"/>
      <point x="217" y="463.312"/>
      <point x="179.735" y="472"/>
      <point x="133" y="472" type="curve"/>
      <point x="133" y="529" type="line"/>
      <point x="187.397" y="529"/>
      <point x="210" y="538.643"/>
      <point x="210" y="598" type="curve" smooth="yes"/>
      <point x="210" y="631.118"/>
      <point x="193.247" y="656"/>
      <point x="158" y="656" type="curve" smooth="yes"/>
      <point x="115.592" y="656"/>
      <point x="104" y="631.107"/>
      <point x="104" y="593" type="curve"/>
      <point x="42" y="593" type="line"/>
      <point x="42" y="604" type="line" smooth="yes"/>
      <point x="42" y="674.749"/>
      <point x="92.152" y="714"/>
      <point x="160" y="714" type="curve" smooth="yes"/>
      <point x="237.201" y="714"/>
      <point x="278" y="669.704"/>
      <point x="278" y="594" type="curve" smooth="yes"/>
      <point x="278" y="557.342"/>
      <point x="258.184" y="522.596"/>
      <point x="225" y="506" type="curve"/>
      <point x="273.079" y="484.666"/>
      <point x="284" y="441.182"/>
      <point x="284" y="393" type="curve" smooth="yes"/>
      <point x="284" y="321.409"/>
      <point x="230.322" y="273"/>
      <point x="160" y="273" type="curve" smooth="yes"/>
      <point x="80.74" y="273"/>
      <point x="40" y="316.279"/>
    </contour>
    <contour>
      <point x="815" y="77" type="line"/>
      <point x="775" y="77" type="line"/>
      <point x="775" y="0" type="line"/>
      <point x="705" y="0" type="line"/>
      <point x="705" y="77" type="line"/>
      <point x="544" y="77" type="line"/>
      <point x="544" y="137" type="line"/>
      <point x="664" y="427" type="line"/>
      <point x="733" y="427" type="line"/>
      <point x="614" y="137" type="line"/>
      <point x="705" y="137" type="line"/>
      <point x="705" y="238" type="line"/>
      <point x="775" y="238" type="line"/>
      <point x="775" y="137" type="line"/>
      <point x="815" y="137" type="line"/>
    </contour>
    <contour>
      <point x="575" y="707" type="line"/>
      <point x="640" y="707" type="line"/>
      <point x="258" y="0" type="line"/>
      <point x="194" y="0" type="line"/>
    </contour>
  </outline>
</glyph>
<glyph name="Atilde" format="2">
  <advance width="590"/>
  <unicode hex="00C3"/>
  <outline>
    <contour>
      <point x="445" y="170" type="line"/>
      <point x="145" y="170" type="line"/>
      <point x="86" y="0" type="line"/>
      <point x="7" y="0" type="line"/>
      <point x="264" y="707" type="line"/>
      <point x="327" y="707" type="line"/>
      <point x="584" y="0" type="line"/>
      <point x="505" y="0" type="line"/>
    </contour>
    <contour>
      <point x="424" y="233" type="line"/>
      <point x="295" y="602" type="line"/>
      <point x="167" y="233" type="line"/>
    </contour>
    <contour>
      <point x="169" y="833" type="line"/>
      <point x="181" y="847"/>
      <point x="192" y="856"/>
      <point x="203" y="862" type="curve" smooth="yes"/>
      <point x="214" y="868"/>
      <point x="226" y="871"/>
      <point x="240" y="871" type="curve" smooth="yes"/>
      <point x="251" y="871"/>
      <point x="260" y="869"/>
      <point x="269" y="866" type="curve" smooth="yes"/>
      <point x="278" y="863"/>
      <point x="289" y="858"/>
      <point x="301" y="851" type="curve" smooth="yes"/>
      <point x="311" y="845"/>
      <point x="320" y="840"/>
      <point x="328" y="837" type="curve" smooth="yes"/>
      <point x="336" y="834"/>
      <point x="344" y="831"/>
      <point x="354" y="831" type="curve" smooth="yes"/>
      <point x="366" y="831"/>
      <point x="378" y="834"/>
      <point x="387" y="840" type="curve" smooth="yes"/>
      <point x="396" y="846"/>
      <point x="408" y="856"/>
      <point x="422" y="871" type="curve"/>
      <point x="422" y="809" type="line"/>
      <point x="400" y="784"/>
      <point x="376" y="771"/>
      <point x="351" y="771" type="curve" smooth="yes"/>
      <point x="339" y="771"/>
      <point x="330" y="773"/>
      <point x="321" y="776" type="curve" smooth="yes"/>
      <point x="312" y="779"/>
      <point x="301" y="785"/>
      <point x="288" y="793" type="curve" smooth="yes"/>
      <point x="286" y="794"/>
      <point x="281" y="797"/>
      <point x="274" y="800" type="curve" smooth="yes"/>
      <point x="267" y="803"/>
      <point x="261" y="805"/>
      <point x="255" y="807" type="curve" smooth="yes"/>
      <point x="249" y="809"/>
      <point x="243" y="810"/>
      <point x="238" y="810" type="curve" smooth="yes"/>
      <point x="225" y="810"/>
      <point x="214" y="807"/>
      <point x="204" y="801" type="curve" smooth="yes"/>
      <point x="194" y="795"/>
      <point x="183" y="785"/>
      <point x="169" y="770" type="curve"/>
    </contour>
  </outline>
</glyph>
<glyph name="Oslash" format="2">
  <advance width="624"/>
  <unicode hex="00D8"/>
  <outline>
    <contour>
      <point x="504" y="635" type="line"/>
      <point x="545.483" y="581.629"/>
      <point x="557" y="510.914"/>
      <point x="557" y="445" type="curve" smooth="yes"/>
      <point x="557" y="262" type="line" smooth="yes"/>
      <point x="557" y="100.858"/>
      <point x="483.352" y="-8"/>
      <point x="312" y="-8" type="curve" smooth="yes"/>
      <point x="258.137" y="-8"/>
      <point x="203.314" y="2.867"/>
      <point x="159" y="35" type="curve"/>
      <point x="127" y="-20" type="line"/>
      <point x="68" y="-20" type="line"/>
      <point x="121" y="72" type="line"/>
      <point x="79.419" y="125.482"/>
      <point x="68" y="195.939"/>
      <point x="68" y="262" type="curve" smooth="yes"/>
      <point x="68" y="445" type="line" smooth="yes"/>
      <point x="68" y="607.705"/>
      <point x="139.456" y="716"/>
      <point x="313" y="716" type="curve" smooth="yes"/>
      <point x="366.717" y="716"/>
      <point x="421.798" y="705.038"/>
      <point x="466" y="673" type="curve"/>
      <point x="498" y="727" type="line"/>
      <point x="557" y="727" type="line"/>
    </contour>
    <contour>
      <point x="163" y="144" type="curve"/>
      <point x="429" y="608" type="line"/>
      <point x="398.554" y="638.444"/>
      <point x="354.739" y="648"/>
      <point x="313" y="648" type="curve" smooth="yes"/>
      <point x="178.854" y="648"/>
      <point x="142" y="561.797"/>
      <point x="142" y="442" type="curve" smooth="yes"/>
      <point x="142" y="258" type="line" smooth="yes"/>
      <point x="142" y="219.582"/>
      <point x="146.119" y="179.044"/>
    </contour>
    <contour>
      <point x="462" y="561" type="curve"/>
      <point x="196" y="98" type="line"/>
      <point x="227.42" y="68.917"/>
      <point x="271.411" y="60"/>
      <point x="313" y="60" type="curve" smooth="yes"/>
      <point x="438.957" y="60"/>
      <point x="482" y="142.413"/>
      <point x="482" y="258" type="curve" smooth="yes"/>
      <point x="482" y="442" type="line" smooth="yes"/>
      <point x="482" y="482.021"/>
      <point x="478.626" y="524.05"/>
    </contour>
  </outline>
</glyph>
<glyph name="eogonek" format="2">
  <advance width="515"/>
  <unicode hex="0119"/>
  <outline>
    <contour>
      <point x="338" y="17" type="line"/>
      <point x="427" y="69" type="line"/>
      <point x="306" y="-105" type="line"/>
      <point x="341" y="-152"/>
      <point x="367" y="-155"/>
      <point x="423" y="-155" type="curve"/>
      <point x="423" y="-217" type="line"/>
      <point x="346" y="-216"/>
      <point x="314" y="-199"/>
      <point x="278" y="-166" type="curve" smooth="yes"/>
      <point x="259" y="-149"/>
      <point x="246" y="-127"/>
      <point x="237" y="-100" type="curve"/>
    </contour>
    <component base="e"/>
  </outline>
</glyph>
<glyph name="Hbar" format="2">
  <advance width="644"/>
  <unicode hex="0126"/>
  <outline>
    <component base="H"/>
    <contour>
      <point x="40" y="569" type="line"/>
      <point x="602" y="569" type="line"/>
      <point x="602" y="502" type="line"/>
      <point x="40" y="502" type="line"/>
    </contour>
  </outline>
</glyph>
<glyph name="hbar" format="2">
  <advance width="534"/>
  <unicode hex="0127"/>
  <outline>
    <contour>
      <point x="10" y="639" type="line"/>
      <point x="292" y="639" type="line"/>
      <point x="292" y="582" type="line"/>
      <point x="10" y="582" type="line"/>
    </contour>
    <component base="h"/>
  </outline>
</glyph>
<glyph name="Iogonek" format="2">
  <advance width="254"/>
  <unicode hex="012E"/>
  <outline>
    <component base="I"/>
    <contour>
      <point x="91" y="0" type="line"/>
      <point x="156" y="0" type="line"/>
      <point x="39" y="-105" type="line"/>
      <point x="69.609" y="-148.469"/>
      <point x="105.726" y="-155.456"/>
      <point x="156" y="-155" type="curve"/>
      <point x="156" y="-217" type="line"/>
      <point x="73.081" y="-216.389"/>
      <point x="-2.498" y="-183.814"/>
      <point x="-30" y="-100" type="curve"/>
    </contour>
  </outline>
</glyph>
<glyph name="IJ" format="2">
  <advance width="650"/>
  <unicode hex="0132"/>
  <outline>
    <contour>
      <point x="201" y="24" type="curve" smooth="yes"/>
      <point x="164" y="44"/>
      <point x="135" y="72"/>
      <point x="114" y="108" type="curve" smooth="yes"/>
      <point x="105" y="124"/>
      <point x="97" y="141"/>
      <point x="92" y="159" type="curve"/>
      <point x="171" y="159" type="line"/>
      <point x="179" y="140"/>
      <point x="189" y="123"/>
      <point x="203" y="108" type="curve" smooth="yes"/>
      <point x="233" y="76"/>
      <point x="275" y="60"/>
      <point x="326" y="60" type="curve" smooth="yes"/>
      <point x="377" y="60"/>
      <point x="416" y="76"/>
      <point x="447" y="108" type="curve" smooth="yes"/>
      <point x="478" y="140"/>
      <point x="494" y="183"/>
      <point x="494" y="237" type="curve" smooth="yes"/>
      <point x="494" y="707" type="line"/>
      <point x="568" y="707" type="line"/>
      <point x="568" y="230" type="line" smooth="yes"/>
      <point x="568" y="184"/>
      <point x="558" y="143"/>
      <point x="537" y="107" type="curve" smooth="yes"/>
      <point x="516" y="71"/>
      <point x="488" y="44"/>
      <point x="451" y="24" type="curve" smooth="yes"/>
      <point x="414" y="4"/>
      <point x="372" y="-6"/>
      <point x="326" y="-6" type="curve" smooth="yes"/>
      <point x="280" y="-6"/>
      <point x="238" y="4"/>
    </contour>
    <contour>
      <point x="82" y="707" type="line"/>
      <point x="158" y="707" type="line"/>
      <point x="158" y="249" type="line"/>
      <point x="82" y="249" type="line"/>
    </contour>
  </outline>
</glyph>
<glyph name="ij" format="2">
  <advance width="449"/>
  <unicode hex="0133"/>
  <outline>
    <contour>
      <point x="349" y="707" type="line"/>
      <point x="419" y="707" type="line"/>
      <point x="419" y="614" type="line"/>
      <point x="349" y="614" type="line"/>
    </contour>
    <contour>
      <point x="37" y="707" type="line"/>
      <point x="106" y="707" type="line"/>
      <point x="106" y="615" type="line"/>
      <point x="37" y="615" type="line"/>
    </contour>
    <contour>
      <point x="33" y="519" type="line"/>
      <point x="104" y="519" type="line"/>
      <point x="104" y="250" type="line" smooth="yes"/>
      <point x="104" y="147"/>
      <point x="143" y="95"/>
      <point x="219" y="95" type="curve" smooth="yes"/>
      <point x="307" y="95"/>
      <point x="349" y="162"/>
      <point x="349" y="251" type="curve" smooth="yes"/>
      <point x="349" y="519" type="line"/>
      <point x="419" y="519" type="line"/>
      <point x="419" y="41" type="line" smooth="yes"/>
      <point x="419" y="-84"/>
      <point x="351" y="-162"/>
      <point x="227" y="-162" type="curve" smooth="yes"/>
      <point x="126" y="-162"/>
      <point x="49" y="-116"/>
      <point x="43" y="-26" type="curve"/>
      <point x="112" y="-26" type="line"/>
      <point x="118" y="-75"/>
      <point x="169" y="-101"/>
      <point x="227" y="-101" type="curve" smooth="yes"/>
      <point x="308" y="-101"/>
      <point x="349" y="-56"/>
      <point x="349" y="35" type="curve" smooth="yes"/>
      <point x="349" y="108" type="line"/>
      <point x="323" y="61"/>
      <point x="279" y="32"/>
      <point x="209" y="32" type="curve" smooth="yes"/>
      <point x="158" y="32"/>
      <point x="116" y="49"/>
      <point x="83" y="83" type="curve" smooth="yes"/>
      <point x="50" y="117"/>
      <point x="33" y="172"/>
      <point x="33" y="246" type="curve" smooth="yes"/>
    </contour>
  </outline>
</glyph>
<glyph name="lslash" format="2">
  <advance width="279"/>
  <unicode hex="0142"/>
  <outline>
    <component base="l"/>
    <contour>
      <point x="22" y="350" type="line"/>
      <point x="23" y="408" type="line"/>
      <point x="209" y="478" type="line"/>
      <point x="209" y="420" type="line"/>
    </contour>
  </outline>
</glyph>
<glyph name="eng" format="2">
  <advance width="534"/>
  <unicode hex="014B"/>
  <outline>
    <contour>
      <point x="427" y="-138" type="curve" smooth="yes"/>
      <point x="449" y="-115"/>
      <point x="461" y="-81"/>
      <point x="460" y="-37" type="curve" smooth="yes"/>
      <point x="458" y="341" type="line" smooth="yes"/>
      <point x="458" y="399"/>
      <point x="443" y="445"/>
      <point x="413" y="477" type="curve" smooth="yes"/>
      <point x="383" y="509"/>
      <point x="341" y="525"/>
      <point x="286" y="525" type="curve" smooth="yes"/>
      <point x="256" y="525"/>
      <point x="228" y="520"/>
      <point x="204" y="508" type="curve" smooth="yes"/>
      <point x="180" y="496"/>
      <point x="160" y="479"/>
      <point x="145" y="456" type="curve"/>
      <point x="145" y="519" type="line"/>
      <point x="77" y="519" type="line"/>
      <point x="77" y="0" type="line"/>
      <point x="146" y="0" type="line"/>
      <point x="146" y="331" type="line" smooth="yes"/>
      <point x="146" y="373"/>
      <point x="158" y="406"/>
      <point x="180" y="429" type="curve" smooth="yes"/>
      <point x="202" y="452"/>
      <point x="231" y="463"/>
      <point x="268" y="463" type="curve" smooth="yes"/>
      <point x="306" y="463"/>
      <point x="335" y="452"/>
      <point x="356" y="429" type="curve" smooth="yes"/>
      <point x="377" y="406"/>
      <point x="388" y="374"/>
      <point x="388" y="331" type="curve" smooth="yes"/>
      <point x="388" y="-33" type="line" smooth="yes"/>
      <point x="388" y="-60"/>
      <point x="385" y="-79"/>
      <point x="375" y="-91" type="curve" smooth="yes"/>
      <point x="365" y="-103"/>
      <point x="348" y="-110"/>
      <point x="325" y="-110" type="curve" smooth="yes"/>
      <point x="283" y="-110" type="line"/>
      <point x="283" y="-173" type="line"/>
      <point x="332" y="-173" type="line" smooth="yes"/>
      <point x="374" y="-173"/>
      <point x="405" y="-161"/>
    </contour>
  </outline>
</glyph>
<glyph name="Tbar" format="2">
  <advance width="493"/>
  <unicode hex="0166"/>
  <outline>
    <contour>
      <point x="113" y="378" type="line"/>
      <point x="379" y="378" type="line"/>
      <point x="379" y="314" type="line"/>
      <point x="113" y="314" type="line"/>
    </contour>
    <component base="T"/>
  </outline>
</glyph>
<glyph name="tbar" format="2">
  <advance width="348"/>
  <unicode hex="0167"/>
  <outline>
    <contour>
      <point x="35" y="367" type="line"/>
      <point x="303" y="367" type="line"/>
      <point x="303" y="314" type="line"/>
      <point x="35" y="314" type="line"/>
    </contour>
    <component base="t"/>
  </outline>
</glyph>
<glyph name="Uogonek" format="2">
  <advance width="650"/>
  <unicode hex="0172"/>
  <outline>
    <component base="U"/>
    <contour>
      <point x="413" y="32" type="line"/>
      <point x="462" y="32" type="line"/>
      <point x="345" y="-44" type="line"/>
      <point x="349" y="-50"/>
      <point x="353" y="-55"/>
      <point x="358" y="-60" type="curve" smooth="yes"/>
      <point x="381" y="-82"/>
      <point x="423" y="-94"/>
      <point x="463" y="-95" type="curve"/>
      <point x="463" y="-157" type="line"/>
      <point x="403" y="-156"/>
      <point x="354" y="-139"/>
      <point x="318" y="-106" type="curve" smooth="yes"/>
      <point x="299" y="-89"/>
      <point x="286" y="-67"/>
      <point x="277" y="-40" type="curve"/>
    </contour>
  </outline>
</glyph>
<glyph name="uogonek" format="2">
  <advance width="534"/>
  <unicode hex="0173"/>
  <outline>
    <component base="u"/>
    <contour>
      <point x="302" y="9" type="line"/>
      <point x="407" y="42" type="line"/>
      <point x="249" y="-106" type="line"/>
      <point x="284" y="-153"/>
      <point x="310" y="-156"/>
      <point x="366" y="-156" type="curve"/>
      <point x="366" y="-218" type="line"/>
      <point x="289" y="-217"/>
      <point x="257" y="-200"/>
      <point x="221" y="-167" type="curve" smooth="yes"/>
      <point x="202" y="-150"/>
      <point x="189" y="-128"/>
      <point x="180" y="-101" type="curve"/>
    </contour>
  </outline>
</glyph>
<glyph name="zcaron" format="2">
  <advance width="466"/>
  <unicode hex="017E"/>
  <outline>
    <contour>
      <point x="407" y="455" type="line"/>
      <point x="138" y="65" type="line"/>
      <point x="407" y="65" type="line"/>
      <point x="407" y="0" type="line"/>
      <point x="60" y="0" type="line"/>
      <point x="60" y="65" type="line"/>
      <point x="327" y="455" type="line"/>
      <point x="60" y="455" type="line"/>
      <point x="60" y="519" type="line"/>
      <point x="407" y="519" type="line"/>
    </contour>
    <contour>
      <point x="95" y="724" type="line"/>
      <point x="159" y="724" type="line"/>
      <point x="233" y="627" type="line"/>
      <point x="307" y="724" type="line"/>
      <point x="371" y="724" type="line"/>
      <point x="261" y="577" type="line"/>
      <point x="205" y="577" type="line"/>
    </contour>
  </outline>
</glyph>
<glyph name="Ocenteredtilde" format="2">
  <advance width="624"/>
  <unicode hex="019F"/>
  <outline>
    <contour>
      <point x="120" y="389" type="line"/>
      <point x="502" y="389" type="line"/>
      <point x="502" y="322" type="line"/>
      <point x="120" y="322" type="line"/>
    </contour>
    <contour>
      <point x="68" y="262" type="curve" smooth="yes"/>
      <point x="68" y="445" type="line" smooth="yes"/>
      <point x="68" y="620.101"/>
      <point x="154.698" y="716"/>
      <point x="313" y="716" type="curve" smooth="yes"/>
      <point x="470.389" y="716"/>
      <point x="557" y="619.805"/>
      <point x="557" y="445" type="curve" smooth="yes"/>
      <point x="557" y="262" type="line" smooth="yes"/>
      <point x="557" y="88.997"/>
      <point x="468.984" y="-8"/>
      <point x="312" y="-8" type="curve" smooth="yes"/>
      <point x="154.716" y="-8"/>
      <point x="68" y="87.956"/>
    </contour>
    <contour>
      <point x="482" y="258" type="curve" smooth="yes"/>
      <point x="482" y="442" type="line" smooth="yes"/>
      <point x="482" y="576.97"/>
      <point x="422.287" y="648"/>
      <point x="308.823" y="648" type="curve" smooth="yes"/>
      <point x="196.89" y="648"/>
      <point x="142" y="580.22"/>
      <point x="142" y="442" type="curve" smooth="yes"/>
      <point x="142" y="258" type="line" smooth="yes"/>
      <point x="142" y="128.072"/>
      <point x="200.789" y="60"/>
      <point x="313" y="60" type="curve" smooth="yes"/>
      <point x="423.913" y="60"/>
      <point x="482" y="128.055"/>
    </contour>
  </outline>
</glyph>
<glyph name="Oogonek" format="2">
  <advance width="624"/>
  <unicode hex="01EA"/>
  <outline>
    <component base="O"/>
    <contour>
      <point x="403" y="32" type="line"/>
      <point x="452" y="32" type="line"/>
      <point x="335" y="-44" type="line"/>
      <point x="339" y="-50"/>
      <point x="343" y="-55"/>
      <point x="348" y="-60" type="curve" smooth="yes"/>
      <point x="371" y="-82"/>
      <point x="413" y="-94"/>
      <point x="453" y="-95" type="curve"/>
      <point x="453" y="-157" type="line"/>
      <point x="393" y="-156"/>
      <point x="344" y="-139"/>
      <point x="308" y="-106" type="curve" smooth="yes"/>
      <point x="289" y="-89"/>
      <point x="276" y="-67"/>
      <point x="267" y="-40" type="curve"/>
    </contour>
  </outline>
</glyph>
<glyph name="oogonek" format="2">
  <advance width="517"/>
  <unicode hex="01EB"/>
  <outline>
    <component base="o"/>
    <contour>
      <point x="333" y="29" type="line"/>
      <point x="382" y="29" type="line"/>
      <point x="265" y="-44" type="line"/>
      <point x="269" y="-50"/>
      <point x="273" y="-55"/>
      <point x="278" y="-60" type="curve" smooth="yes"/>
      <point x="301" y="-82"/>
      <point x="343" y="-94"/>
      <point x="383" y="-95" type="curve"/>
      <point x="383" y="-157" type="line"/>
      <point x="323" y="-156"/>
      <point x="274" y="-139"/>
      <point x="238" y="-106" type="curve" smooth="yes"/>
      <point x="219" y="-89"/>
      <point x="206" y="-67"/>
      <point x="197" y="-40" type="curve"/>
    </contour>
  </outline>
</glyph>
<glyph name="dotlessj" format="2">
  <advance width="231"/>
  <unicode hex="0237"/>
  <outline>
    <contour>
      <point x="-31" y="-92" type="line"/>
      <point x="11" y="-92" type="line" smooth="yes"/>
      <point x="34" y="-92"/>
      <point x="51" y="-86"/>
      <point x="61" y="-74" type="curve" smooth="yes"/>
      <point x="71" y="-62"/>
      <point x="77" y="-42"/>
      <point x="77" y="-15" type="curve" smooth="yes"/>
      <point x="77" y="519" type="line"/>
      <point x="146" y="519" type="line"/>
      <point x="146" y="-19" type="line" smooth="yes"/>
      <point x="146" y="-63"/>
      <point x="136" y="-98"/>
      <point x="114" y="-121" type="curve" smooth="yes"/>
      <point x="92" y="-144"/>
      <point x="60" y="-156"/>
      <point x="18" y="-156" type="curve" smooth="yes"/>
      <point x="-31" y="-156" type="line"/>
    </contour>
  </outline>
</glyph>
<glyph name="ogonek" format="2">
  <advance width="512"/>
  <unicode hex="02DB"/>
  <outline>
    <contour>
      <point x="373" y="12" type="line"/>
      <point x="423" y="12" type="line"/>
      <point x="423" y="0" type="line"/>
      <point x="316" y="-58" type="line"/>
      <point x="340" y="-83"/>
      <point x="383" y="-94"/>
      <point x="423" y="-95" type="curve"/>
      <point x="423" y="-157" type="line"/>
      <point x="363" y="-156"/>
      <point x="314" y="-139"/>
      <point x="278" y="-106" type="curve" smooth="yes"/>
      <point x="259" y="-89"/>
      <point x="246" y="-67"/>
      <point x="237" y="-40" type="curve"/>
    </contour>
  </outline>
</glyph>
<glyph name="acutecomb" format="2">
  <unicode hex="0301"/>
  <outline>
    <contour>
      <point x="25" y="714" type="line"/>
      <point x="111" y="714" type="line"/>
      <point x="-12" y="586" type="line"/>
      <point x="-77" y="586" type="line"/>
    </contour>
  </outline>
</glyph>
<glyph name="acutecomb.loclPLK" format="2">
  <unicode hex="0301"/>
  <outline>
    <contour>
      <point x="-12" y="714" type="line"/>
      <point x="74" y="714" type="line"/>
      <point x="25" y="586" type="line"/>
      <point x="-40" y="586" type="line"/>
    </contour>
  </outline>
</glyph>
<glyph name="tildecomb" format="2">
  <unicode hex="0303"/>
  <anchor x="0" y="519" name="_top"/>
  <outline>
    <contour>
      <point x="-127" y="645" type="line"/>
      <point x="-109.185" y="666.237"/>
      <point x="-84.796" y="684"/>
      <point x="-56" y="684" type="curve" smooth="yes"/>
      <point x="-12.839" y="684"/>
      <point x="16.685" y="644"/>
      <point x="58" y="644" type="curve" smooth="yes"/>
      <point x="86.056" y="644"/>
      <point x="108.307" y="664.468"/>
      <point x="126" y="684" type="curve"/>
      <point x="126" y="622" type="line"/>
      <point x="108.134" y="601.477"/>
      <point x="83.208" y="584"/>
      <point x="55" y="584" type="curve" smooth="yes"/>
      <point x="11.68" y="584"/>
      <point x="-18.881" y="623"/>
      <point x="-58" y="623" type="curve" smooth="yes"/>
      <point x="-86.403" y="623"/>
      <point x="-109.036" y="602.849"/>
      <point x="-127" y="583" type="curve"/>
    </contour>
  </outline>
</glyph>
<glyph name="macroncmb" format="2">
  <unicode hex="0304"/>
  <anchor x="0" y="519" name="_Anchor-0"/>
  <outline>
    <contour>
      <point x="-133" y="668" type="line"/>
      <point x="133" y="668" type="line"/>
      <point x="133" y="604" type="line"/>
      <point x="-133" y="604" type="line"/>
    </contour>
  </outline>
</glyph>
<glyph name="dieresiscmb" format="2">
  <unicode hex="0308"/>
  <anchor x="0" y="519" name="_Anchor-0"/>
  <outline>
    <contour>
      <point x="-127" y="680" type="line"/>
      <point x="-49" y="680" type="line"/>
      <point x="-49" y="592" type="line"/>
      <point x="-127" y="592" type="line"/>
    </contour>
    <contour>
      <point x="48" y="680" type="line"/>
      <point x="126" y="680" type="line"/>
      <point x="126" y="592" type="line"/>
      <point x="48" y="592" type="line"/>
    </contour>
  </outline>
</glyph>
<glyph name="ringcmb" format="2">
  <unicode hex="030A"/>
  <anchor x="0" y="519" name="_top"/>
  <outline>
    <contour>
      <point x="-67" y="599" type="curve" smooth="yes"/>
      <point x="-84" y="617"/>
      <point x="-93" y="639"/>
      <point x="-93" y="666" type="curve" smooth="yes"/>
      <point x="-93" y="693"/>
      <point x="-84" y="715"/>
      <point x="-67" y="733" type="curve" smooth="yes"/>
      <point x="-50" y="751"/>
      <point x="-27" y="760"/>
      <point x="0" y="760" type="curve" smooth="yes"/>
      <point x="27" y="760"/>
      <point x="49" y="751"/>
      <point x="67" y="733" type="curve" smooth="yes"/>
      <point x="85" y="715"/>
      <point x="93" y="693"/>
      <point x="93" y="666" type="curve" smooth="yes"/>
      <point x="93" y="639"/>
      <point x="85" y="617"/>
      <point x="67" y="599" type="curve" smooth="yes"/>
      <point x="49" y="581"/>
      <point x="27" y="572"/>
      <point x="0" y="572" type="curve" smooth="yes"/>
      <point x="-27" y="572"/>
      <point x="-50" y="581"/>
    </contour>
    <contour>
      <point x="38" y="627" type="curve" smooth="yes"/>
      <point x="48" y="637"/>
      <point x="53" y="650"/>
      <point x="53" y="666" type="curve" smooth="yes"/>
      <point x="53" y="682"/>
      <point x="48" y="694"/>
      <point x="38" y="705" type="curve" smooth="yes"/>
      <point x="28" y="716"/>
      <point x="15" y="721"/>
      <point x="0" y="721" type="curve" smooth="yes"/>
      <point x="-15" y="721"/>
      <point x="-28" y="716"/>
      <point x="-38" y="705" type="curve" smooth="yes"/>
      <point x="-48" y="694"/>
      <point x="-53" y="682"/>
      <point x="-53" y="666" type="curve" smooth="yes"/>
      <point x="-53" y="650"/>
      <point x="-48" y="637"/>
      <point x="-38" y="627" type="curve" smooth="yes"/>
      <point x="-28" y="617"/>
      <point x="-15" y="611"/>
      <point x="0" y="611" type="curve" smooth="yes"/>
      <point x="15" y="611"/>
      <point x="28" y="617"/>
    </contour>
  </outline>
</glyph>
<glyph name="hungarumlautcmb" format="2">
  <unicode hex="030B"/>
  <anchor x="0" y="519" name="_Anchor-0"/>
  <outline>
    <contour>
      <point x="134" y="714" type="line"/>
      <point x="220" y="714" type="line"/>
      <point x="98" y="586" type="line"/>
      <point x="33" y="586" type="line"/>
    </contour>
    <contour>
      <point x="-6" y="714" type="line"/>
      <point x="80" y="714" type="line"/>
      <point x="-42" y="586" type="line"/>
      <point x="-107" y="586" type="line"/>
    </contour>
  </outline>
</glyph>
<glyph name="caroncmb.alt" format="2">
  <unicode hex="030C"/>
  <outline>
    <contour>
      <point x="-32" y="707" type="line"/>
      <point x="32" y="707" type="line"/>
      <point x="32" y="595" type="line"/>
      <point x="-32" y="533" type="line"/>
    </contour>
  </outline>
</glyph>
<glyph name="caroncmb" format="2">
  <unicode hex="030C"/>
  <anchor x="0" y="519" name="_Anchor-0"/>
  <outline>
    <contour>
      <point x="-138" y="724" type="line"/>
      <point x="-75" y="724" type="line"/>
      <point x="0" y="627" type="line"/>
      <point x="74" y="724" type="line"/>
      <point x="137" y="724" type="line"/>
      <point x="28" y="577" type="line"/>
      <point x="-29" y="577" type="line"/>
    </contour>
  </outline>
</glyph>
<glyph name="commaaccentcomb" format="2">
  <unicode hex="0326"/>
  <anchor x="0" y="0" name="_Anchor-1"/>
  <outline>
    <contour>
      <point x="-32" y="-40" type="line"/>
      <point x="32" y="-40" type="line"/>
      <point x="32" y="-111" type="line"/>
      <point x="-32" y="-173" type="line"/>
    </contour>
  </outline>
</glyph>
<glyph name="ogonekcmb" format="2">
  <unicode hex="0328"/>
  <anchor x="0" y="0" name="_bottom"/>
  <outline>
    <contour>
      <point x="-12" y="0" type="line"/>
      <point x="53" y="0" type="line"/>
      <point x="-64" y="-105" type="line"/>
      <point x="-29" y="-152"/>
      <point x="-3" y="-155"/>
      <point x="53" y="-155" type="curve"/>
      <point x="53" y="-217" type="line"/>
      <point x="-24" y="-216"/>
      <point x="-56" y="-199"/>
      <point x="-92" y="-166" type="curve" smooth="yes"/>
      <point x="-111" y="-149"/>
      <point x="-124" y="-127"/>
      <point x="-133" y="-100" type="curve"/>
    </contour>
  </outline>
</glyph>
<glyph name="Djecyr" format="2">
  <advance width="725"/>
  <unicode hex="0402"/>
  <anchor x="218" y="0" name="b.cedilla"/>
  <anchor x="246" y="-86" name="bottom"/>
  <anchor x="232" y="773" name="top"/>
  <outline>
    <contour>
      <point x="210" y="0" type="line"/>
      <point x="284" y="0" type="line"/>
      <point x="284" y="639" type="line"/>
      <point x="485" y="639" type="line"/>
      <point x="485" y="707" type="line"/>
      <point x="8" y="707" type="line"/>
      <point x="8" y="639" type="line"/>
      <point x="210" y="639" type="line"/>
    </contour>
    <contour>
      <point x="390" y="0" type="line"/>
      <point x="436" y="0" type="line" smooth="yes"/>
      <point x="576" y="0"/>
      <point x="658" y="78"/>
      <point x="658" y="211" type="curve" smooth="yes"/>
      <point x="658" y="337"/>
      <point x="573" y="415"/>
      <point x="436" y="415" type="curve" smooth="yes"/>
      <point x="237" y="415" type="line"/>
      <point x="237" y="348" type="line"/>
      <point x="430" y="348" type="line" smooth="yes"/>
      <point x="530" y="348"/>
      <point x="583" y="300"/>
      <point x="583" y="211" type="curve" smooth="yes"/>
      <point x="583" y="117"/>
      <point x="531" y="69"/>
      <point x="430" y="68" type="curve" smooth="yes"/>
      <point x="390" y="68" type="line"/>
    </contour>
  </outline>
</glyph>
<glyph name="Eukrcyr" format="2">
  <advance width="619"/>
  <unicode hex="0404"/>
  <anchor x="309" y="707" name="top"/>
  <outline>
    <component base="C"/>
    <contour>
      <point x="120" y="394.714" type="line"/>
      <point x="360.227" y="394.714" type="line"/>
      <point x="360.227" y="327.714" type="line"/>
      <point x="120" y="327.714" type="line"/>
    </contour>
  </outline>
</glyph>
<glyph name="Ljecyr" format="2">
  <advance width="920"/>
  <unicode hex="0409"/>
  <outline>
    <component base="Softcyr" xOffset="330"/>
    <contour>
      <point x="412" y="0" type="line"/>
      <point x="412" y="707" type="line"/>
      <point x="487" y="707" type="line"/>
      <point x="487" y="0" type="line"/>
    </contour>
    <contour>
      <point x="117" y="640" type="line"/>
      <point x="117" y="707" type="line"/>
      <point x="477" y="707" type="line"/>
      <point x="477" y="640" type="line"/>
    </contour>
    <contour>
      <point x="20" y="67" type="line"/>
      <point x="51.464" y="67"/>
      <point x="67.251" y="110.982"/>
      <point x="76.785" y="225.199" type="curve" smooth="yes"/>
      <point x="117" y="707" type="line"/>
      <point x="192" y="707" type="line"/>
      <point x="153.22" y="192.423" type="line" smooth="yes"/>
      <point x="142.891" y="55.364"/>
      <point x="100.773" y="-8"/>
      <point x="20" y="-8" type="curve"/>
    </contour>
  </outline>
</glyph>
<glyph name="Njecyr" format="2">
  <advance width="1005"/>
  <unicode hex="040A"/>
  <outline>
    <component base="H"/>
    <contour>
      <point x="517" y="0" type="line"/>
      <point x="716" y="0" type="line" smooth="yes"/>
      <point x="856" y="0"/>
      <point x="938" y="78"/>
      <point x="938" y="211" type="curve" smooth="yes"/>
      <point x="938" y="337"/>
      <point x="853" y="415"/>
      <point x="716" y="415" type="curve" smooth="yes"/>
      <point x="517" y="415" type="line"/>
      <point x="517" y="348" type="line"/>
      <point x="710" y="348" type="line" smooth="yes"/>
      <point x="810" y="348"/>
      <point x="863" y="300"/>
      <point x="863" y="211" type="curve" smooth="yes"/>
      <point x="863" y="117"/>
      <point x="811" y="68"/>
      <point x="710" y="68" type="curve" smooth="yes"/>
      <point x="517" y="68" type="line"/>
    </contour>
  </outline>
</glyph>
<glyph name="Tshecyr" format="2">
  <advance width="745"/>
  <unicode hex="040B"/>
  <outline>
    <contour>
      <point x="8" y="707" type="line"/>
      <point x="485" y="707" type="line"/>
      <point x="485" y="639" type="line"/>
      <point x="284" y="639" type="line"/>
      <point x="284" y="415" type="line"/>
      <point x="341" y="430"/>
      <point x="399" y="435"/>
      <point x="456" y="435" type="curve" smooth="yes"/>
      <point x="593" y="435"/>
      <point x="678" y="337"/>
      <point x="678" y="211" type="curve" smooth="yes"/>
      <point x="678" y="0" type="line"/>
      <point x="603" y="0" type="line"/>
      <point x="603" y="211" type="line" smooth="yes"/>
      <point x="603" y="300"/>
      <point x="550" y="368"/>
      <point x="450" y="368" type="curve" smooth="yes"/>
      <point x="395" y="368"/>
      <point x="339" y="363"/>
      <point x="284" y="348" type="curve"/>
      <point x="284" y="0" type="line"/>
      <point x="210" y="0" type="line"/>
      <point x="210" y="639" type="line"/>
      <point x="8" y="639" type="line"/>
    </contour>
  </outline>
</glyph>
<glyph name="Dzhecyr" format="2">
  <advance width="611"/>
  <unicode hex="040F"/>
  <outline>
    <contour>
      <point x="268" y="-170" type="line"/>
      <point x="343" y="-170" type="line"/>
      <point x="343" y="67" type="line"/>
      <point x="268" y="67" type="line"/>
    </contour>
    <contour>
      <point x="126" y="0" type="line"/>
      <point x="489" y="0" type="line"/>
      <point x="489" y="67" type="line"/>
      <point x="126" y="67" type="line"/>
    </contour>
    <contour>
      <point x="454" y="0" type="line"/>
      <point x="529" y="0" type="line"/>
      <point x="529" y="707" type="line"/>
      <point x="454" y="707" type="line"/>
    </contour>
    <contour>
      <point x="82" y="0" type="line"/>
      <point x="157" y="0" type="line"/>
      <point x="157" y="707" type="line"/>
      <point x="82" y="707" type="line"/>
    </contour>
  </outline>
</glyph>
<glyph name="Becyr" format="2">
  <advance width="630"/>
  <unicode hex="0411"/>
  <outline>
    <contour>
      <point x="140" y="0" type="line"/>
      <point x="140" y="67" type="line"/>
      <point x="335" y="67" type="line" smooth="yes"/>
      <point x="427" y="67"/>
      <point x="483" y="121"/>
      <point x="483" y="208" type="curve" smooth="yes"/>
      <point x="483" y="295"/>
      <point x="428" y="347"/>
      <point x="336" y="347" type="curve" smooth="yes"/>
      <point x="140" y="347" type="line"/>
      <point x="140" y="414" type="line"/>
      <point x="344" y="414" type="line" smooth="yes"/>
      <point x="475" y="414"/>
      <point x="558" y="334"/>
      <point x="558" y="209" type="curve" smooth="yes"/>
      <point x="558" y="83"/>
      <point x="473" y="0"/>
      <point x="344" y="0" type="curve" smooth="yes"/>
    </contour>
    <contour>
      <point x="142" y="640" type="line"/>
      <point x="142" y="707" type="line"/>
      <point x="502" y="707" type="line"/>
      <point x="502" y="640" type="line"/>
    </contour>
    <contour>
      <point x="82" y="0" type="line"/>
      <point x="82" y="707" type="line"/>
      <point x="157" y="707" type="line"/>
      <point x="157" y="0" type="line"/>
    </contour>
  </outline>
</glyph>
<glyph name="Zhecyr" format="2">
  <advance width="989"/>
  <unicode hex="0416"/>
  <guideline x="223" y="0" angle="90" name="vertical"/>
  <guideline x="0" y="707" angle="0" name="horizontal"/>
  <guideline x="424" y="0" angle="90" name="vertical"/>
  <guideline x="0" y="707" angle="0" name="horizontal"/>
  <anchor x="416" y="707" name="top"/>
  <outline>
    <contour>
      <point x="512" y="328" type="line"/>
      <point x="680" y="328" type="line"/>
      <point x="680" y="395" type="line"/>
      <point x="512" y="395" type="line"/>
    </contour>
    <contour>
      <point x="457" y="0" type="line"/>
      <point x="532" y="0" type="line"/>
      <point x="532" y="707" type="line"/>
      <point x="457" y="707" type="line"/>
    </contour>
    <contour>
      <point x="892" y="0" type="line"/>
      <point x="979" y="0" type="line"/>
      <point x="680" y="395" type="line"/>
      <point x="632" y="337" type="line"/>
    </contour>
    <contour>
      <point x="588" y="339" type="line"/>
      <point x="649" y="339" type="line"/>
      <point x="947" y="707" type="line"/>
      <point x="858" y="707" type="line"/>
      <point x="588" y="365" type="line"/>
    </contour>
    <contour>
      <point x="309" y="328" type="line"/>
      <point x="477" y="328" type="line"/>
      <point x="477" y="395" type="line"/>
      <point x="309" y="395" type="line"/>
    </contour>
    <contour>
      <point x="457" y="0" type="line"/>
      <point x="532" y="0" type="line"/>
      <point x="532" y="707" type="line"/>
      <point x="457" y="707" type="line"/>
    </contour>
    <contour>
      <point x="10" y="0" type="line"/>
      <point x="97" y="0" type="line"/>
      <point x="357" y="337" type="line"/>
      <point x="309" y="395" type="line"/>
    </contour>
    <contour>
      <point x="340" y="339" type="line"/>
      <point x="401" y="339" type="line"/>
      <point x="401" y="365" type="line"/>
      <point x="131" y="707" type="line"/>
      <point x="42" y="707" type="line"/>
    </contour>
  </outline>
</glyph>
<glyph name="Zecyr" format="2">
  <advance width="611"/>
  <unicode hex="0417"/>
  <outline>
    <contour>
      <point x="83" y="189" type="line"/>
      <point x="83" y="181" type="line" smooth="yes"/>
      <point x="83" y="66"/>
      <point x="173" y="-8"/>
      <point x="307" y="-8" type="curve" smooth="yes"/>
      <point x="436" y="-8"/>
      <point x="544" y="59"/>
      <point x="544" y="190" type="curve" smooth="yes"/>
      <point x="544" y="205" type="line" smooth="yes"/>
      <point x="544" y="280"/>
      <point x="499" y="341"/>
      <point x="424" y="364" type="curve"/>
      <point x="490" y="385"/>
      <point x="533" y="446"/>
      <point x="533" y="514" type="curve" smooth="yes"/>
      <point x="533" y="524" type="line" smooth="yes"/>
      <point x="533" y="653"/>
      <point x="441" y="716"/>
      <point x="314" y="716" type="curve" smooth="yes"/>
      <point x="176" y="716"/>
      <point x="83" y="642"/>
      <point x="83" y="527" type="curve" smooth="yes"/>
      <point x="83" y="519" type="line"/>
      <point x="158" y="519" type="line"/>
      <point x="158" y="527" type="line" smooth="yes"/>
      <point x="158" y="601"/>
      <point x="219" y="649"/>
      <point x="307" y="649" type="curve" smooth="yes"/>
      <point x="395" y="649"/>
      <point x="458" y="609"/>
      <point x="458" y="520" type="curve" smooth="yes"/>
      <point x="458" y="512" type="line" smooth="yes"/>
      <point x="458" y="430"/>
      <point x="390" y="394"/>
      <point x="306" y="394" type="curve" smooth="yes"/>
      <point x="213" y="394" type="line"/>
      <point x="213" y="328" type="line"/>
      <point x="312" y="328" type="line" smooth="yes"/>
      <point x="403" y="328"/>
      <point x="469" y="287"/>
      <point x="469" y="195" type="curve" smooth="yes"/>
      <point x="469" y="183" type="line" smooth="yes"/>
      <point x="469" y="98"/>
      <point x="394" y="59"/>
      <point x="305" y="59" type="curve" smooth="yes"/>
      <point x="218" y="59"/>
      <point x="158" y="106"/>
      <point x="158" y="181" type="curve" smooth="yes"/>
      <point x="158" y="189" type="line"/>
    </contour>
  </outline>
</glyph>
<glyph name="Icyr" format="2">
  <advance width="679"/>
  <unicode hex="0418"/>
  <guideline x="323" y="0" angle="90" name="h1"/>
  <anchor x="323" y="773" name="top"/>
  <outline>
    <contour>
      <point x="82" y="0" type="line"/>
      <point x="157" y="0" type="line"/>
      <point x="488" y="523" type="line" smooth="yes"/>
      <point x="504" y="549"/>
      <point x="517" y="574"/>
      <point x="524" y="593" type="curve"/>
      <point x="528" y="593" type="line"/>
      <point x="524" y="554"/>
      <point x="522" y="523"/>
      <point x="522" y="483" type="curve" smooth="yes"/>
      <point x="522" y="0" type="line"/>
      <point x="597" y="0" type="line"/>
      <point x="597" y="707" type="line"/>
      <point x="522" y="707" type="line"/>
      <point x="191" y="184" type="line" smooth="yes"/>
      <point x="177" y="162"/>
      <point x="165" y="142"/>
      <point x="155" y="124" type="curve"/>
      <point x="151" y="124" type="line"/>
      <point x="156" y="162"/>
      <point x="157" y="194"/>
      <point x="157" y="234" type="curve" smooth="yes"/>
      <point x="157" y="707" type="line"/>
      <point x="82" y="707" type="line"/>
    </contour>
  </outline>
</glyph>
<glyph name="Kacyr" format="2">
  <advance width="612"/>
  <unicode hex="041A"/>
  <guideline x="0" y="707" angle="0" name="horizontal"/>
  <guideline x="285" y="0" angle="90" name="h1"/>
  <anchor x="285" y="773" name="top"/>
  <outline>
    <contour>
      <point x="82" y="707" type="line"/>
      <point x="157" y="707" type="line"/>
      <point x="157" y="395" type="line"/>
      <point x="237" y="395" type="line"/>
      <point x="483" y="707" type="line"/>
      <point x="572" y="707" type="line"/>
      <point x="312" y="386" type="line"/>
      <point x="604" y="0" type="line"/>
      <point x="517" y="0" type="line"/>
      <point x="264" y="328" type="line"/>
      <point x="157" y="328" type="line"/>
      <point x="157" y="0" type="line"/>
      <point x="82" y="0" type="line"/>
    </contour>
  </outline>
</glyph>
<glyph name="Pecyr" format="2">
  <advance width="635"/>
  <unicode hex="041F"/>
  <outline>
    <contour>
      <point x="553" y="707" type="line"/>
      <point x="553" y="0" type="line"/>
      <point x="478" y="0" type="line"/>
      <point x="478" y="640.068" type="line"/>
      <point x="157" y="640.068" type="line"/>
      <point x="157" y="0" type="line"/>
      <point x="82" y="0" type="line"/>
      <point x="82" y="707" type="line"/>
    </contour>
  </outline>
</glyph>
<glyph name="Ucyr" format="2">
  <advance width="510"/>
  <unicode hex="0423"/>
  <anchor x="255" y="707" name="top"/>
  <outline>
    <contour>
      <point x="248.36" y="96.183" type="line" smooth="yes"/>
      <point x="217.048" y="21.367"/>
      <point x="160.909" y="-8"/>
      <point x="121.721" y="-8" type="curve" smooth="yes"/>
      <point x="92.278" y="-8" type="line"/>
      <point x="92.278" y="62" type="line"/>
      <point x="108.731" y="62.334" type="line" smooth="yes"/>
      <point x="130.168" y="62.769"/>
      <point x="165.935" y="70.943"/>
      <point x="192.257" y="139.721" type="curve" smooth="yes"/>
      <point x="231.027" y="241.026" type="line"/>
      <point x="227.995" y="241.026" type="line"/>
      <point x="423" y="707" type="line"/>
      <point x="504" y="707" type="line"/>
    </contour>
    <contour>
      <point x="209.723" y="176.768" type="line"/>
      <point x="7" y="707" type="line"/>
      <point x="88" y="707" type="line"/>
      <point x="255.5" y="261.88" type="line"/>
    </contour>
  </outline>
</glyph>
<glyph name="Shacyr" format="2">
  <advance width="838"/>
  <unicode hex="0428"/>
  <guideline x="82" y="0" angle="90"/>
  <guideline x="158" y="0" angle="90"/>
  <guideline x="381" y="0" angle="90"/>
  <guideline x="457" y="0" angle="90"/>
  <guideline x="687" y="0" angle="90"/>
  <guideline x="763" y="0" angle="90"/>
  <guideline x="0" y="707" angle="0"/>
  <anchor x="677" y="695" name="top"/>
  <outline>
    <component base="I" xOffset="-7"/>
    <component base="I" xOffset="292"/>
    <component base="I" xOffset="591"/>
    <contour>
      <point x="125" y="0" type="line"/>
      <point x="733" y="0" type="line"/>
      <point x="733" y="67" type="line"/>
      <point x="125" y="67" type="line"/>
    </contour>
  </outline>
</glyph>
<glyph name="Ereversedcyr" format="2">
  <advance width="619"/>
  <unicode hex="042D"/>
  <outline>
    <contour>
      <point x="550.003" y="262" type="line" smooth="yes"/>
      <point x="550.003" y="98.224"/>
      <point x="474.38" y="-8"/>
      <point x="302.003" y="-8" type="curve" smooth="yes"/>
      <point x="167.931" y="-8"/>
      <point x="63.0026" y="65.86"/>
      <point x="63.0026" y="208" type="curve" smooth="yes"/>
      <point x="63.0026" y="212" type="line"/>
      <point x="136.003" y="212" type="line"/>
      <point x="134.887" y="111.443"/>
      <point x="205.878" y="60"/>
      <point x="301.003" y="60" type="curve" smooth="yes"/>
      <point x="428.418" y="60"/>
      <point x="476.003" y="139.798"/>
      <point x="476.003" y="258" type="curve" smooth="yes"/>
      <point x="476.003" y="442" type="line" smooth="yes"/>
      <point x="476.003" y="561.824"/>
      <point x="434.786" y="648"/>
      <point x="302.003" y="648" type="curve" smooth="yes"/>
      <point x="207.225" y="648"/>
      <point x="134.853" y="597.958"/>
      <point x="136.003" y="497" type="curve"/>
      <point x="61.0026" y="497" type="line"/>
      <point x="60.3886" y="638.972"/>
      <point x="167.993" y="716"/>
      <point x="302.003" y="716" type="curve" smooth="yes"/>
      <point x="474.982" y="716"/>
      <point x="550.003" y="608.983"/>
      <point x="550.003" y="445" type="curve" smooth="yes"/>
    </contour>
    <contour>
      <point x="498.003" y="327.714" type="line"/>
      <point x="257.776" y="327.714" type="line"/>
      <point x="257.776" y="394.714" type="line"/>
      <point x="498.003" y="394.714" type="line"/>
    </contour>
  </outline>
</glyph>
<glyph name="becyr" format="2">
  <advance width="506"/>
  <unicode hex="0431"/>
  <outline>
    <contour>
      <point x="252" y="-6" type="curve" smooth="yes"/>
      <point x="379" y="-6"/>
      <point x="446" y="94"/>
      <point x="446" y="207" type="curve" smooth="yes"/>
      <point x="446" y="274" type="line" smooth="yes"/>
      <point x="446" y="388"/>
      <point x="399" y="486"/>
      <point x="272" y="486" type="curve" smooth="yes"/>
      <point x="213" y="486"/>
      <point x="171" y="469"/>
      <point x="133" y="431" type="curve"/>
      <point x="61" y="431" type="line"/>
      <point x="61" y="232" type="line" smooth="yes"/>
      <point x="62" y="90"/>
      <point x="120" y="-6"/>
    </contour>
    <contour>
      <point x="254" y="56" type="curve" smooth="yes"/>
      <point x="163" y="56"/>
      <point x="130" y="131"/>
      <point x="130" y="212" type="curve" smooth="yes"/>
      <point x="130" y="264" type="line" smooth="yes"/>
      <point x="130" y="346"/>
      <point x="165" y="424"/>
      <point x="258" y="424" type="curve" smooth="yes"/>
      <point x="350" y="424"/>
      <point x="376" y="349"/>
      <point x="376" y="270" type="curve" smooth="yes"/>
      <point x="376" y="211" type="line" smooth="yes"/>
      <point x="376" y="134"/>
      <point x="345" y="56"/>
    </contour>
    <contour>
      <point x="61" y="380" type="line"/>
      <point x="130" y="380" type="line"/>
      <point x="130" y="436" type="line" smooth="yes"/>
      <point x="130" y="637"/>
      <point x="264" y="583"/>
      <point x="376" y="639" type="curve"/>
      <point x="376" y="707" type="line"/>
      <point x="235" y="629"/>
      <point x="61" y="712"/>
      <point x="61" y="436" type="curve" smooth="yes"/>
    </contour>
  </outline>
</glyph>
<glyph name="gecyr" format="2">
  <advance width="443"/>
  <unicode hex="0433"/>
  <anchor x="235" y="519" name="top"/>
  <outline>
    <component base="dotlessi"/>
    <contour>
      <point x="85" y="467" type="line"/>
      <point x="85" y="519" type="line"/>
      <point x="405.828" y="519" type="line"/>
      <point x="405.828" y="467" type="line"/>
    </contour>
  </outline>
</glyph>
<glyph name="decyr" format="2">
  <advance width="539"/>
  <unicode hex="0434"/>
  <guideline x="233" y="418" angle="87.1659"/>
  <guideline x="169" y="519" angle="266.6"/>
  <outline>
    <contour>
      <point x="449" y="-170" type="line"/>
      <point x="519" y="-170" type="line"/>
      <point x="519" y="65" type="line"/>
      <point x="429" y="65" type="line"/>
      <point x="429" y="0" type="line"/>
      <point x="449" y="0" type="line"/>
    </contour>
    <contour>
      <point x="20" y="-170" type="line"/>
      <point x="95" y="-170" type="line"/>
      <point x="95" y="65" type="line"/>
      <point x="20" y="65" type="line"/>
    </contour>
    <contour>
      <point x="399" y="0" type="line"/>
      <point x="469" y="0" type="line"/>
      <point x="469" y="519" type="line"/>
      <point x="399" y="519" type="line"/>
    </contour>
    <contour>
      <point x="75" y="0" type="line"/>
      <point x="165" y="0"/>
      <point x="219" y="144"/>
      <point x="233" y="418" type="curve" smooth="yes"/>
      <point x="238" y="519" type="line"/>
      <point x="169" y="519" type="line"/>
      <point x="163" y="418" type="line" smooth="yes"/>
      <point x="149" y="195"/>
      <point x="111" y="52"/>
      <point x="54" y="52" type="curve"/>
    </contour>
    <contour>
      <point x="87" y="0" type="line"/>
      <point x="419" y="0" type="line"/>
      <point x="419" y="65" type="line"/>
      <point x="87" y="65" type="line"/>
    </contour>
    <contour>
      <point x="183" y="452" type="line"/>
      <point x="463" y="452" type="line"/>
      <point x="463" y="519" type="line"/>
      <point x="183" y="519" type="line"/>
    </contour>
  </outline>
</glyph>
<glyph name="zhecyr" format="2">
  <advance width="777"/>
  <unicode hex="0436"/>
  <guideline x="273" y="0" angle="90" name="vertical"/>
  <guideline x="0" y="519" angle="0" name="horizontal"/>
  <guideline x="778" y="0" angle="90" name="vertical"/>
  <guideline x="0" y="519" angle="0" name="horizontal"/>
  <anchor x="778" y="519" name="top"/>
  <outline>
    <component base="kacyr" xOffset="277"/>
    <contour>
      <point x="305" y="261" type="line"/>
      <point x="127" y="519" type="line"/>
      <point x="43" y="519" type="line"/>
      <point x="230" y="261" type="line"/>
    </contour>
    <contour>
      <point x="99" y="0" type="line"/>
      <point x="275" y="248" type="line"/>
      <point x="232" y="306" type="line"/>
      <point x="14" y="0" type="line"/>
    </contour>
    <contour>
      <point x="374" y="240" type="line"/>
      <point x="374" y="305" type="line"/>
      <point x="239" y="305" type="line"/>
      <point x="239" y="240" type="line"/>
    </contour>
  </outline>
</glyph>
<glyph name="zecyr" format="2">
  <advance width="461"/>
  <unicode hex="0437"/>
  <anchor x="206" y="707" name="top"/>
  <outline>
    <contour>
      <point x="400.371" y="139.535" type="curve" smooth="yes"/>
      <point x="400.371" y="47.423"/>
      <point x="339.024" y="-6"/>
      <point x="228.079" y="-6" type="curve" smooth="yes"/>
      <point x="136.734" y="-6"/>
      <point x="60.219" y="58.854"/>
      <point x="60.219" y="139.439" type="curve"/>
      <point x="130.219" y="139.497" type="line"/>
      <point x="130.219" y="86.373"/>
      <point x="172.18" y="45.939"/>
      <point x="230.289" y="45.837" type="curve" smooth="yes"/>
      <point x="296.254" y="45.722"/>
      <point x="330.571" y="79"/>
      <point x="330.571" y="143.083" type="curve" smooth="yes"/>
      <point x="330.571" y="206.128"/>
      <point x="292.388" y="238.53"/>
      <point x="218.095" y="238.53" type="curve" smooth="yes"/>
      <point x="149.731" y="238.53" type="line"/>
      <point x="149.731" y="290.64" type="line"/>
      <point x="213.59" y="290.64" type="line" smooth="yes"/>
      <point x="285.496" y="290.64"/>
      <point x="322.388" y="321.401"/>
      <point x="322.388" y="381.358" type="curve" smooth="yes"/>
      <point x="322.388" y="443.538"/>
      <point x="288.764" y="474.159"/>
      <point x="220.485" y="474.159" type="curve" smooth="yes"/>
      <point x="166.01" y="474.159"/>
      <point x="130.219" y="438.647"/>
      <point x="130.219" y="379.652" type="curve"/>
      <point x="60.219" y="379.56" type="line"/>
      <point x="60.219" y="459.479"/>
      <point x="125.513" y="526"/>
      <point x="223.561" y="526" type="curve" smooth="yes"/>
      <point x="332.691" y="526"/>
      <point x="392.187" y="474.307"/>
      <point x="392.187" y="384.04" type="curve" smooth="yes"/>
      <point x="392.187" y="329.209"/>
      <point x="362.614" y="283.901"/>
      <point x="311.092" y="266.812" type="curve"/>
      <point x="370.859" y="248.498"/>
      <point x="400.371" y="201.818"/>
    </contour>
  </outline>
</glyph>
<glyph name="elcyr" format="2">
  <advance width="488"/>
  <unicode hex="043B"/>
  <outline>
    <contour>
      <point x="20.324" y="72" type="line"/>
      <point x="56.057" y="72"/>
      <point x="69.668" y="90.966"/>
      <point x="79.821" y="187.682" type="curve" smooth="yes"/>
      <point x="114.602" y="519" type="line"/>
      <point x="184" y="519" type="line"/>
      <point x="146.945" y="142.404" type="line" smooth="yes"/>
      <point x="138.037" y="51.865"/>
      <point x="84.779" y="0"/>
      <point x="20.324" y="0" type="curve"/>
    </contour>
    <contour>
      <point x="129" y="452" type="line"/>
      <point x="129" y="519" type="line"/>
      <point x="409" y="519" type="line"/>
      <point x="409" y="452" type="line"/>
    </contour>
    <contour>
      <point x="341" y="519" type="line"/>
      <point x="411" y="519" type="line"/>
      <point x="411" y="0" type="line"/>
      <point x="341" y="0" type="line"/>
    </contour>
  </outline>
</glyph>
<glyph name="emcyr" format="2">
  <advance width="667"/>
  <unicode hex="043C"/>
  <outline>
    <contour>
      <point x="77" y="0" type="line"/>
      <point x="147" y="0" type="line"/>
      <point x="147" y="379" type="line" smooth="yes"/>
      <point x="147" y="419"/>
      <point x="140" y="479"/>
      <point x="137" y="519" type="curve"/>
      <point x="77" y="519" type="line"/>
    </contour>
    <contour>
      <point x="310" y="80" type="line"/>
      <point x="334" y="80" type="line"/>
      <point x="334" y="174" type="line"/>
      <point x="332" y="174" type="line"/>
      <point x="326" y="193"/>
      <point x="317" y="215"/>
      <point x="309" y="230" type="curve" smooth="yes"/>
      <point x="149" y="519" type="line"/>
      <point x="133" y="519" type="line"/>
      <point x="133" y="405" type="line"/>
      <point x="147" y="405" type="line"/>
      <point x="151" y="386"/>
      <point x="159" y="360"/>
      <point x="170" y="339" type="curve" smooth="yes"/>
    </contour>
    <contour>
      <point x="334" y="80" type="line"/>
      <point x="358" y="80" type="line"/>
      <point x="497" y="339" type="line" smooth="yes"/>
      <point x="509" y="360"/>
      <point x="517" y="386"/>
      <point x="520" y="405" type="curve"/>
      <point x="534" y="405" type="line"/>
      <point x="534" y="519" type="line"/>
      <point x="518" y="519" type="line"/>
      <point x="359" y="230" type="line" smooth="yes"/>
      <point x="351" y="215"/>
      <point x="341" y="193"/>
      <point x="336" y="174" type="curve"/>
      <point x="334" y="174" type="line"/>
    </contour>
    <contour>
      <point x="520" y="0" type="line"/>
      <point x="590" y="0" type="line"/>
      <point x="590" y="519" type="line"/>
      <point x="530" y="519" type="line"/>
      <point x="526" y="479"/>
      <point x="520" y="419"/>
      <point x="520" y="379" type="curve" smooth="yes"/>
    </contour>
  </outline>
</glyph>
<glyph name="encyr" format="2">
  <advance width="536"/>
  <unicode hex="043D"/>
  <outline>
    <contour>
      <point x="389" y="0" type="line"/>
      <point x="459" y="0" type="line"/>
      <point x="459" y="519" type="line"/>
      <point x="389" y="519" type="line"/>
    </contour>
    <contour>
      <point x="77" y="0" type="line"/>
      <point x="147" y="0" type="line"/>
      <point x="147" y="519" type="line"/>
      <point x="77" y="519" type="line"/>
    </contour>
    <contour>
      <point x="127" y="246" type="line"/>
      <point x="409" y="246" type="line"/>
      <point x="409" y="311" type="line"/>
      <point x="127" y="311" type="line"/>
    </contour>
  </outline>
</glyph>
<glyph name="tecyr" format="2">
  <advance width="392"/>
  <unicode hex="0442"/>
  <guideline x="196" y="0" angle="90" name="h1"/>
  <anchor x="196" y="586" name="top"/>
  <outline>
    <contour>
      <point x="26" y="454" type="line"/>
      <point x="366" y="454" type="line"/>
      <point x="366" y="519" type="line"/>
      <point x="26" y="519" type="line"/>
    </contour>
    <contour>
      <point x="163" y="0" type="line"/>
      <point x="232" y="0" type="line"/>
      <point x="232" y="519" type="line"/>
      <point x="163" y="519" type="line"/>
    </contour>
  </outline>
</glyph>
<glyph name="tsecyr" format="2">
  <advance width="519"/>
  <unicode hex="0446"/>
  <outline>
    <contour>
      <point x="77" y="519" type="line"/>
      <point x="147" y="519" type="line"/>
      <point x="147" y="65" type="line"/>
      <point x="389" y="65" type="line"/>
      <point x="389" y="519" type="line"/>
      <point x="459" y="519" type="line"/>
      <point x="459" y="65" type="line"/>
      <point x="509" y="65" type="line"/>
      <point x="509" y="-170" type="line"/>
      <point x="439" y="-170" type="line"/>
      <point x="439" y="0" type="line"/>
      <point x="77" y="0" type="line"/>
    </contour>
  </outline>
</glyph>
<glyph name="shacyr" format="2">
  <advance width="780"/>
  <unicode hex="0448"/>
  <outline>
    <component base="dotlessi" xOffset="-8"/>
    <component base="dotlessi" xOffset="547.135"/>
    <component base="dotlessi" xOffset="270.034"/>
    <contour>
      <point x="90" y="0" type="line"/>
      <point x="90" y="52" type="line"/>
      <point x="683.201" y="52" type="line"/>
      <point x="683.201" y="0" type="line"/>
    </contour>
  </outline>
</glyph>
<glyph name="shchacyr" format="2">
  <advance width="763"/>
  <unicode hex="0449"/>
  <outline>
    <contour>
      <point x="77" y="519" type="line"/>
      <point x="147" y="519" type="line"/>
      <point x="147" y="65" type="line"/>
      <point x="355" y="65" type="line"/>
      <point x="355" y="519" type="line"/>
      <point x="425" y="519" type="line"/>
      <point x="425" y="65" type="line"/>
      <point x="633" y="65" type="line"/>
      <point x="633" y="519" type="line"/>
      <point x="703" y="519" type="line"/>
      <point x="703" y="65" type="line"/>
      <point x="753" y="65" type="line"/>
      <point x="753" y="-170" type="line"/>
      <point x="683" y="-170" type="line"/>
      <point x="683" y="0" type="line"/>
      <point x="77" y="0" type="line"/>
    </contour>
  </outline>
</glyph>
<glyph name="softcyr" format="2">
  <advance width="519"/>
  <unicode hex="044C"/>
  <outline>
    <contour>
      <point x="77" y="519" type="line"/>
      <point x="147" y="519" type="line"/>
      <point x="147" y="311" type="line"/>
      <point x="310" y="311" type="line" smooth="yes"/>
      <point x="423" y="311"/>
      <point x="459" y="244"/>
      <point x="459" y="147" type="curve" smooth="yes"/>
      <point x="459" y="49"/>
      <point x="404" y="0"/>
      <point x="294" y="0" type="curve" smooth="yes"/>
      <point x="77" y="0" type="line"/>
    </contour>
    <contour>
      <point x="305" y="246" type="curve" smooth="yes"/>
      <point x="147" y="246" type="line"/>
      <point x="147" y="65" type="line"/>
      <point x="300" y="65" type="line" smooth="yes"/>
      <point x="350" y="65"/>
      <point x="380" y="98"/>
      <point x="380" y="154" type="curve" smooth="yes"/>
      <point x="380" y="200"/>
      <point x="361" y="246"/>
    </contour>
  </outline>
</glyph>
<glyph name="yucyr" format="2">
  <advance width="708"/>
  <unicode hex="044E"/>
  <anchor x="491" y="519" name="top"/>
  <outline>
    <component base="dotlessi" xOffset="-8"/>
    <component base="o" xOffset="191"/>
    <contour>
      <point x="122" y="246" type="line"/>
      <point x="122" y="298" type="line"/>
      <point x="283.74" y="298" type="line"/>
      <point x="283.74" y="246" type="line"/>
    </contour>
  </outline>
</glyph>
<glyph name="yacyr" format="2">
  <advance width="535"/>
  <unicode hex="044F"/>
  <guideline x="275" y="0" angle="90" name="h1"/>
  <anchor x="275" y="586" name="top"/>
  <outline>
    <contour>
      <point x="217" y="176" type="line"/>
      <point x="133" y="195"/>
      <point x="76" y="267"/>
      <point x="76" y="355" type="curve" smooth="yes"/>
      <point x="76" y="455"/>
      <point x="139" y="519"/>
      <point x="237" y="519" type="curve" smooth="yes"/>
      <point x="408" y="519" type="line"/>
      <point x="408" y="454" type="line"/>
      <point x="265" y="454" type="line" smooth="yes"/>
      <point x="221" y="454"/>
      <point x="146" y="436"/>
      <point x="146" y="351" type="curve" smooth="yes"/>
      <point x="146" y="286"/>
      <point x="194" y="241"/>
      <point x="265" y="241" type="curve" smooth="yes"/>
      <point x="408" y="241" type="line"/>
      <point x="408" y="176" type="line"/>
    </contour>
    <contour>
      <point x="458" y="0" type="line"/>
      <point x="388" y="0" type="line"/>
      <point x="388" y="519" type="line"/>
      <point x="458" y="519" type="line"/>
    </contour>
    <contour>
      <point x="88" y="0" type="line"/>
      <point x="187" y="202" type="line"/>
      <point x="256" y="190" type="line"/>
      <point x="169" y="0" type="line"/>
    </contour>
  </outline>
</glyph>
<glyph name="djecyr" format="2">
  <advance width="492"/>
  <unicode hex="0452"/>
  <guideline x="111" y="0" angle="90" name="vertical"/>
  <guideline x="0" y="707" angle="0" name="horizontal"/>
  <guideline x="320" y="0" angle="90" name="h1"/>
  <anchor x="320" y="586" name="top"/>
  <outline>
    <contour>
      <point x="10" y="582" type="line"/>
      <point x="292" y="582" type="line"/>
      <point x="292" y="639" type="line"/>
      <point x="10" y="639" type="line"/>
    </contour>
    <contour>
      <point x="77" y="0" type="line"/>
      <point x="146" y="0" type="line"/>
      <point x="146" y="331" type="line" smooth="yes"/>
      <point x="146" y="407"/>
      <point x="188" y="463"/>
      <point x="268" y="463" type="curve" smooth="yes"/>
      <point x="350" y="463"/>
      <point x="388" y="408"/>
      <point x="388" y="331" type="curve" smooth="yes"/>
      <point x="388" y="0" type="line"/>
      <point x="458" y="0" type="line"/>
      <point x="458" y="341" type="line" smooth="yes"/>
      <point x="458" y="450"/>
      <point x="400" y="525"/>
      <point x="286" y="525" type="curve" smooth="yes"/>
      <point x="230" y="525"/>
      <point x="178" y="504"/>
      <point x="146" y="456" type="curve"/>
      <point x="146" y="707" type="line"/>
      <point x="77" y="707" type="line"/>
    </contour>
    <contour>
      <point x="281" y="-156" type="line"/>
      <point x="330" y="-156" type="line" smooth="yes"/>
      <point x="419" y="-156"/>
      <point x="458" y="-104"/>
      <point x="458" y="-19" type="curve" smooth="yes"/>
      <point x="458" y="100" type="line"/>
      <point x="388" y="100" type="line"/>
      <point x="388" y="-15" type="line" smooth="yes"/>
      <point x="388" y="-76"/>
      <point x="370" y="-92"/>
      <point x="298" y="-92" type="curve" smooth="yes"/>
      <point x="281" y="-92" type="line"/>
    </contour>
  </outline>
</glyph>
<glyph name="eukrcyr" format="2">
  <advance width="515"/>
  <unicode hex="0454"/>
  <outline>
    <component base="c"/>
    <contour>
      <point x="100" y="246" type="line"/>
      <point x="100" y="298" type="line"/>
      <point x="309.828" y="298" type="line"/>
      <point x="309.828" y="246" type="line"/>
    </contour>
  </outline>
</glyph>
<glyph name="ljecyr" format="2">
  <advance width="759"/>
  <unicode hex="0459"/>
  <outline>
    <contour>
      <point x="105" y="519" type="line"/>
      <point x="401" y="519" type="line"/>
      <point x="401" y="311" type="line"/>
      <point x="550" y="311" type="line" smooth="yes"/>
      <point x="663" y="311"/>
      <point x="699" y="244"/>
      <point x="699" y="147" type="curve" smooth="yes"/>
      <point x="699" y="49"/>
      <point x="644" y="0"/>
      <point x="534" y="0" type="curve" smooth="yes"/>
      <point x="331" y="0" type="line"/>
      <point x="331" y="452" type="line"/>
      <point x="167" y="452" type="line"/>
      <point x="137" y="142" type="line" smooth="yes"/>
      <point x="128" y="52"/>
      <point x="75" y="0"/>
      <point x="10" y="0" type="curve"/>
      <point x="10" y="72" type="line"/>
      <point x="46" y="72"/>
      <point x="60" y="91"/>
      <point x="70" y="188" type="curve" smooth="yes"/>
    </contour>
    <contour>
      <point x="401" y="246" type="line"/>
      <point x="401" y="65" type="line"/>
      <point x="540" y="65" type="line" smooth="yes"/>
      <point x="590" y="65"/>
      <point x="620" y="98"/>
      <point x="620" y="154" type="curve" smooth="yes"/>
      <point x="620" y="200"/>
      <point x="601" y="246"/>
      <point x="545" y="246" type="curve" smooth="yes"/>
    </contour>
  </outline>
</glyph>
<glyph name="njecyr" format="2">
  <advance width="829"/>
  <unicode hex="045A"/>
  <outline>
    <contour>
      <point x="77" y="519" type="line"/>
      <point x="147" y="519" type="line"/>
      <point x="147" y="311" type="line"/>
      <point x="389" y="311" type="line"/>
      <point x="389" y="519" type="line"/>
      <point x="459" y="519" type="line"/>
      <point x="459" y="311" type="line"/>
      <point x="620" y="311" type="line" smooth="yes"/>
      <point x="733" y="311"/>
      <point x="769" y="244"/>
      <point x="769" y="147" type="curve" smooth="yes"/>
      <point x="769" y="49"/>
      <point x="714" y="0"/>
      <point x="604" y="0" type="curve" smooth="yes"/>
      <point x="389" y="0" type="line"/>
      <point x="389" y="246" type="line"/>
      <point x="147" y="246" type="line"/>
      <point x="147" y="0" type="line"/>
      <point x="77" y="0" type="line"/>
    </contour>
    <contour>
      <point x="459" y="246" type="line"/>
      <point x="459" y="65" type="line"/>
      <point x="610" y="65" type="line" smooth="yes"/>
      <point x="660" y="65"/>
      <point x="690" y="98"/>
      <point x="690" y="154" type="curve" smooth="yes"/>
      <point x="690" y="200"/>
      <point x="671" y="246"/>
      <point x="615" y="246" type="curve" smooth="yes"/>
    </contour>
  </outline>
</glyph>
<glyph name="tshecyr" format="2">
  <advance width="534"/>
  <unicode hex="045B"/>
  <anchor x="111" y="707" name="top"/>
  <outline>
    <contour>
      <point x="77" y="707" type="line"/>
      <point x="146" y="707" type="line"/>
      <point x="146" y="456" type="line"/>
      <point x="178.05" y="503.645"/>
      <point x="229.809" y="525"/>
      <point x="286" y="525" type="curve" smooth="yes"/>
      <point x="399.562" y="525"/>
      <point x="458" y="450.147"/>
      <point x="458" y="341" type="curve" smooth="yes"/>
      <point x="458" y="0" type="line"/>
      <point x="388" y="0" type="line"/>
      <point x="388" y="331" type="line" smooth="yes"/>
      <point x="388" y="408.127"/>
      <point x="349.599" y="463"/>
      <point x="268" y="463" type="curve" smooth="yes"/>
      <point x="188.148" y="463"/>
      <point x="146" y="407.265"/>
      <point x="146" y="331" type="curve" smooth="yes"/>
      <point x="146" y="0" type="line"/>
      <point x="77" y="0" type="line"/>
    </contour>
    <contour>
      <point x="0" y="643.188" type="line"/>
      <point x="266" y="643.188" type="line"/>
      <point x="266" y="579.188" type="line"/>
      <point x="0" y="579.188" type="line"/>
    </contour>
  </outline>
</glyph>
<glyph name="gheupturncyrillic" format="2">
  <advance width="345"/>
  <unicode hex="0491"/>
  <outline>
    <component base="gecyr"/>
    <contour>
      <point x="269" y="519" type="line"/>
      <point x="269" y="629" type="line"/>
      <point x="319" y="629" type="line"/>
      <point x="319" y="519" type="line"/>
    </contour>
  </outline>
</glyph>
<glyph name="quotedblright" format="2">
  <advance width="315"/>
  <unicode hex="201D"/>
  <outline>
    <contour>
      <point x="54" y="708" type="line"/>
      <point x="122" y="708" type="line"/>
      <point x="122" y="536" type="line"/>
      <point x="54" y="472" type="line"/>
    </contour>
    <contour>
      <point x="195" y="708" type="line"/>
      <point x="262" y="708" type="line"/>
      <point x="262" y="536" type="line"/>
      <point x="195" y="472" type="line"/>
    </contour>
  </outline>
</glyph>
<glyph name="fl" format="2">
  <advance width="614"/>
  <unicode hex="FB02"/>
  <outline>
    <contour>
      <point x="187" y="519" type="curve"/>
      <point x="296" y="519" type="line"/>
      <point x="296" y="464" type="line"/>
      <point x="187" y="464" type="line"/>
      <point x="187" y="0" type="line"/>
      <point x="117" y="0" type="line"/>
      <point x="117" y="464" type="line"/>
      <point x="51" y="464" type="line"/>
      <point x="51" y="519" type="line"/>
      <point x="117" y="519" type="line"/>
      <point x="117" y="578" type="line" smooth="yes"/>
      <point x="117" y="656.048"/>
      <point x="162.462" y="707"/>
      <point x="242" y="707" type="curve" smooth="yes"/>
      <point x="296" y="707" type="line"/>
      <point x="296" y="651" type="line"/>
      <point x="178.337" y="651"/>
      <point x="187" y="632.386"/>
    </contour>
    <contour>
      <point x="412" y="136" type="curve" smooth="yes"/>
      <point x="412" y="707" type="line"/>
      <point x="481" y="707" type="line"/>
      <point x="481" y="140" type="line" smooth="yes"/>
      <point x="481" y="60.005"/>
      <point x="523.105" y="63"/>
      <point x="589" y="63" type="curve"/>
      <point x="589" y="0" type="line"/>
      <point x="540" y="0" type="line" smooth="yes"/>
      <point x="451.861" y="0"/>
      <point x="412" y="51.054"/>
    </contour>
  </outline>
</glyph>
<glyph name="Decyr.loclBGR" format="2">
  <advance width="638"/>
  <outline>
    <component base="V" xScale="-1" yScale="-1" xOffset="555" yOffset="707"/>
    <contour>
      <point x="22" y="0" type="line"/>
      <point x="22" y="67" type="line"/>
      <point x="510.255" y="67" type="line"/>
      <point x="510.255" y="0" type="line"/>
    </contour>
    <contour>
      <point x="9" y="-170" type="line"/>
      <point x="9" y="67" type="line"/>
      <point x="84" y="67" type="line"/>
      <point x="84" y="-170" type="line"/>
    </contour>
    <contour>
      <point x="494" y="-170" type="line"/>
      <point x="494" y="67" type="line"/>
      <point x="569" y="67" type="line"/>
      <point x="569" y="-170" type="line"/>
    </contour>
  </outline>
</glyph>
<glyph name="Elcyr.loclBGR" format="2">
  <advance width="591"/>
  <outline>
    <contour>
      <point x="264" y="707" type="line"/>
      <point x="327" y="707" type="line"/>
      <point x="584" y="0" type="line"/>
      <point x="505" y="0" type="line"/>
      <point x="295" y="602" type="line"/>
      <point x="86" y="0" type="line"/>
      <point x="7" y="0" type="line"/>
    </contour>
  </outline>
</glyph>
<glyph name="five.dnom" format="2">
  <advance width="316"/>
  <outline>
    <contour>
      <point x="158" y="221" type="curve" smooth="yes"/>
      <point x="117" y="221"/>
      <point x="108" y="195"/>
      <point x="101" y="178" type="curve"/>
      <point x="38" y="178" type="line"/>
      <point x="38" y="431" type="line"/>
      <point x="279" y="431" type="line"/>
      <point x="279" y="368" type="line"/>
      <point x="106" y="368" type="line"/>
      <point x="106" y="269" type="line"/>
      <point x="127" y="281"/>
      <point x="144" y="284"/>
      <point x="164" y="284" type="curve" smooth="yes"/>
      <point x="211" y="284"/>
      <point x="286" y="266"/>
      <point x="286" y="155" type="curve" smooth="yes"/>
      <point x="286" y="109" type="line" smooth="yes"/>
      <point x="286" y="28"/>
      <point x="236" y="-17"/>
      <point x="158" y="-17" type="curve" smooth="yes"/>
      <point x="132" y="-17"/>
      <point x="31" y="-11"/>
      <point x="31" y="91" type="curve" smooth="yes"/>
      <point x="31" y="110" type="line"/>
      <point x="101" y="110" type="line"/>
      <point x="101" y="95" type="line" smooth="yes"/>
      <point x="101" y="72"/>
      <point x="110" y="45"/>
      <point x="157" y="45" type="curve" smooth="yes"/>
      <point x="182" y="45"/>
      <point x="214" y="52"/>
      <point x="214" y="113" type="curve" smooth="yes"/>
      <point x="214" y="153" type="line" smooth="yes"/>
      <point x="214" y="217"/>
      <point x="180" y="221"/>
    </contour>
  </outline>
</glyph>
<glyph name="four.sups" format="2">
  <advance width="339"/>
  <outline>
    <contour>
      <point x="308" y="517" type="line"/>
      <point x="268" y="517" type="line"/>
      <point x="268" y="440" type="line"/>
      <point x="198" y="440" type="line"/>
      <point x="198" y="517" type="line"/>
      <point x="37" y="517" type="line"/>
      <point x="37" y="578" type="line"/>
      <point x="157" y="867" type="line"/>
      <point x="226" y="867" type="line"/>
      <point x="108" y="578" type="line"/>
      <point x="198" y="578" type="line"/>
      <point x="198" y="678" type="line"/>
      <point x="268" y="678" type="line"/>
      <point x="268" y="578" type="line"/>
      <point x="308" y="578" type="line"/>
    </contour>
  </outline>
</glyph>
<glyph name="hardcyr.loclBGR" format="2">
  <advance width="589"/>
  <outline>
    <contour>
      <point x="147" y="182" type="line"/>
      <point x="217" y="182" type="line"/>
      <point x="217" y="519" type="line"/>
      <point x="147" y="519" type="line"/>
    </contour>
    <contour>
      <point x="182" y="454" type="line"/>
      <point x="182" y="519" type="line"/>
      <point x="0" y="519" type="line"/>
      <point x="0" y="454" type="line"/>
    </contour>
    <contour>
      <point x="147" y="182" type="line"/>
      <point x="147" y="71"/>
      <point x="221" y="-6"/>
      <point x="336" y="-6" type="curve" smooth="yes"/>
      <point x="475" y="-6"/>
      <point x="549" y="80"/>
      <point x="549" y="195" type="curve" smooth="yes"/>
      <point x="549" y="317"/>
      <point x="467" y="387"/>
      <point x="351" y="387" type="curve" smooth="yes"/>
      <point x="287" y="387"/>
      <point x="241" y="372"/>
      <point x="197" y="341" type="curve"/>
      <point x="197" y="265" type="line"/>
      <point x="241" y="300"/>
      <point x="286" y="322"/>
      <point x="349" y="322" type="curve" smooth="yes"/>
      <point x="420" y="322"/>
      <point x="470" y="267"/>
      <point x="470" y="189" type="curve" smooth="yes"/>
      <point x="470" y="111"/>
      <point x="426" y="56"/>
      <point x="342" y="56" type="curve" smooth="yes"/>
      <point x="264" y="56"/>
      <point x="217" y="107"/>
      <point x="217" y="182" type="curve"/>
    </contour>
  </outline>
</glyph>
<glyph name="nine.tosf" format="2">
  <advance width="524"/>
  <outline>
    <contour>
      <point x="324" y="139" type="line"/>
      <point x="303.946" y="125.166"/>
      <point x="272.083" y="119"/>
      <point x="248" y="119" type="curve" smooth="yes"/>
      <point x="139.146" y="119"/>
      <point x="71" y="196.533"/>
      <point x="71" y="303" type="curve" smooth="yes"/>
      <point x="71" y="337" type="line" smooth="yes"/>
      <point x="71" y="451.855"/>
      <point x="149.144" y="530"/>
      <point x="264" y="530" type="curve" smooth="yes"/>
      <point x="380.795" y="530"/>
      <point x="456" y="456.149"/>
      <point x="456" y="339" type="curve" smooth="yes"/>
      <point x="456" y="305" type="line" smooth="yes"/>
      <point x="456" y="252.231"/>
      <point x="437.658" y="207.156"/>
      <point x="414" y="161" type="curve" smooth="yes"/>
      <point x="251" y="-157" type="line"/>
      <point x="173" y="-157" type="line"/>
    </contour>
    <contour>
      <point x="381" y="307" type="curve" smooth="yes"/>
      <point x="381" y="339" type="line" smooth="yes"/>
      <point x="381" y="411.41"/>
      <point x="337.843" y="460"/>
      <point x="264" y="460" type="curve" smooth="yes"/>
      <point x="190.469" y="460"/>
      <point x="146" y="412.812"/>
      <point x="146" y="340" type="curve" smooth="yes"/>
      <point x="146" y="308" type="line" smooth="yes"/>
      <point x="146" y="235.615"/>
      <point x="191.253" y="189"/>
      <point x="264" y="189" type="curve" smooth="yes"/>
      <point x="335.678" y="189"/>
      <point x="381" y="235.676"/>
    </contour>
  </outline>
</glyph>
<glyph name="seven.tosf" format="2">
  <advance width="524"/>
  <outline>
    <contour>
      <point x="445" y="519" type="line"/>
      <point x="445" y="451" type="line"/>
      <point x="215" y="-162" type="line"/>
      <point x="140" y="-162" type="line"/>
      <point x="374" y="451" type="line"/>
      <point x="86" y="451" type="line"/>
      <point x="86" y="519" type="line"/>
    </contour>
  </outline>
</glyph>
<glyph name="shchacyr.loclBGR" format="2">
  <advance width="840"/>
  <outline>
    <component base="m" xScale="-1" yScale="-1" xOffset="845" yOffset="519"/>
    <contour>
      <point x="754.223" y="-170" type="line"/>
      <point x="754.223" y="52" type="line"/>
      <point x="829.223" y="52" type="line"/>
      <point x="829.223" y="-170" type="line"/>
    </contour>
  </outline>
</glyph>
<glyph name="six.dnom" format="2">
  <advance width="323"/>
  <outline>
    <contour>
      <point x="162" y="-17" type="curve" smooth="yes"/>
      <point x="79" y="-17"/>
      <point x="26" y="36"/>
      <point x="26" y="112" type="curve" smooth="yes"/>
      <point x="26" y="132" type="line" smooth="yes"/>
      <point x="26" y="154"/>
      <point x="32" y="186"/>
      <point x="54" y="227" type="curve" smooth="yes"/>
      <point x="163" y="431" type="line"/>
      <point x="240" y="431" type="line"/>
      <point x="149" y="257" type="line"/>
      <point x="157" y="259"/>
      <point x="164" y="260"/>
      <point x="172" y="260" type="curve" smooth="yes"/>
      <point x="247" y="260"/>
      <point x="297" y="211"/>
      <point x="297" y="134" type="curve" smooth="yes"/>
      <point x="297" y="113" type="line" smooth="yes"/>
      <point x="297" y="30"/>
      <point x="237" y="-17"/>
    </contour>
    <contour>
      <point x="162" y="45" type="curve" smooth="yes"/>
      <point x="205" y="45"/>
      <point x="225" y="73"/>
      <point x="225" y="110" type="curve" smooth="yes"/>
      <point x="225" y="131" type="line" smooth="yes"/>
      <point x="225" y="146"/>
      <point x="221" y="197"/>
      <point x="162" y="197" type="curve" smooth="yes"/>
      <point x="145" y="197"/>
      <point x="99" y="191"/>
      <point x="99" y="132" type="curve" smooth="yes"/>
      <point x="99" y="111" type="line" smooth="yes"/>
      <point x="99" y="93"/>
      <point x="104" y="45"/>
    </contour>
  </outline>
</glyph>
<glyph name="softcyr.loclBGR" format="2">
  <advance width="555"/>
  <outline>
    <contour>
      <point x="77" y="182" type="line"/>
      <point x="147" y="182" type="line"/>
      <point x="147" y="519" type="line"/>
      <point x="77" y="519" type="line"/>
    </contour>
    <contour>
      <point x="77" y="182" type="line"/>
      <point x="77" y="71"/>
      <point x="151" y="-6"/>
      <point x="266" y="-6" type="curve" smooth="yes"/>
      <point x="405" y="-6"/>
      <point x="479" y="80"/>
      <point x="479" y="195" type="curve" smooth="yes"/>
      <point x="479" y="317"/>
      <point x="397" y="387"/>
      <point x="281" y="387" type="curve" smooth="yes"/>
      <point x="217" y="387"/>
      <point x="171" y="372"/>
      <point x="127" y="341" type="curve"/>
      <point x="127" y="265" type="line"/>
      <point x="171" y="300"/>
      <point x="216" y="322"/>
      <point x="279" y="322" type="curve" smooth="yes"/>
      <point x="350" y="322"/>
      <point x="400" y="267"/>
      <point x="400" y="189" type="curve" smooth="yes"/>
      <point x="400" y="111"/>
      <point x="356" y="56"/>
      <point x="272" y="56" type="curve" smooth="yes"/>
      <point x="194" y="56"/>
      <point x="147" y="107"/>
      <point x="147" y="182" type="curve"/>
    </contour>
  </outline>
</glyph>
<glyph name="three.sups" format="2">
  <advance width="326"/>
  <outline>
    <contour>
      <point x="40" y="555" type="curve"/>
      <point x="101" y="555" type="line"/>
      <point x="101" y="516.08"/>
      <point x="116.596" y="490"/>
      <point x="159" y="490" type="curve" smooth="yes"/>
      <point x="208.607" y="490"/>
      <point x="217" y="526.004"/>
      <point x="217" y="567" type="curve" smooth="yes"/>
      <point x="217" y="623.789"/>
      <point x="180.81" y="633"/>
      <point x="133" y="633" type="curve"/>
      <point x="133" y="690" type="line"/>
      <point x="187.397" y="690"/>
      <point x="210" y="699.643"/>
      <point x="210" y="759" type="curve" smooth="yes"/>
      <point x="210" y="792.118"/>
      <point x="193.247" y="817"/>
      <point x="158" y="817" type="curve" smooth="yes"/>
      <point x="115.592" y="817"/>
      <point x="104" y="792.107"/>
      <point x="104" y="754" type="curve"/>
      <point x="42" y="754" type="line"/>
      <point x="42" y="765" type="line" smooth="yes"/>
      <point x="42" y="836.658"/>
      <point x="91.819" y="874"/>
      <point x="160" y="874" type="curve" smooth="yes"/>
      <point x="236.497" y="874"/>
      <point x="278" y="830.291"/>
      <point x="278" y="755" type="curve" smooth="yes"/>
      <point x="278" y="717.173"/>
      <point x="259.182" y="684.077"/>
      <point x="225" y="667" type="curve"/>
      <point x="272.912" y="645.74"/>
      <point x="284" y="602.103"/>
      <point x="284" y="554" type="curve" smooth="yes"/>
      <point x="284" y="481.054"/>
      <point x="231.513" y="434"/>
      <point x="160" y="434" type="curve" smooth="yes"/>
      <point x="79.472" y="434"/>
      <point x="40" y="475.746"/>
    </contour>
  </outline>
</glyph>
<glyph name="tsecyr.loclBGR" format="2">
  <advance width="507"/>
  <outline>
    <component base="icyr.loclBGR" xOffset="-1"/>
    <contour>
      <point x="437" y="65" type="line"/>
      <point x="507" y="65" type="line"/>
      <point x="507" y="-170" type="line"/>
      <point x="437" y="-170" type="line"/>
    </contour>
  </outline>
</glyph>
<glyph name="two.tosf" format="2">
  <advance width="524"/>
  <outline>
    <contour>
      <point x="84" y="60" type="line"/>
      <point x="322" y="282" type="line" smooth="yes"/>
      <point x="345.362" y="303.792"/>
      <point x="367" y="332.606"/>
      <point x="367" y="366" type="curve" smooth="yes"/>
      <point x="367" y="424.543"/>
      <point x="317.707" y="462"/>
      <point x="262" y="462" type="curve" smooth="yes"/>
      <point x="211.393" y="462"/>
      <point x="174.948" y="436.676"/>
      <point x="162" y="387" type="curve"/>
      <point x="87" y="387" type="line"/>
      <point x="101.87" y="479.042"/>
      <point x="173.508" y="529"/>
      <point x="264" y="529" type="curve" smooth="yes"/>
      <point x="303.79" y="529"/>
      <point x="323.072" y="526.115"/>
      <point x="358" y="506" type="curve" smooth="yes"/>
      <point x="405.546" y="478.618"/>
      <point x="443" y="425.067"/>
      <point x="443" y="369" type="curve" smooth="yes"/>
      <point x="443" y="319.444"/>
      <point x="424.598" y="282.744"/>
      <point x="389" y="249" type="curve" smooth="yes"/>
      <point x="197" y="67" type="line"/>
      <point x="443" y="67" type="line"/>
      <point x="443" y="0" type="line"/>
      <point x="84" y="0" type="line"/>
    </contour>
  </outline>
</glyph>
<glyph name="zero.dnom" format="2">
  <advance width="322"/>
  <outline>
    <contour>
      <point x="161" y="-17" type="curve" smooth="yes"/>
      <point x="95" y="-17"/>
      <point x="31" y="12"/>
      <point x="31" y="128" type="curve" smooth="yes"/>
      <point x="31" y="294" type="line" smooth="yes"/>
      <point x="31" y="330"/>
      <point x="35" y="437"/>
      <point x="161" y="437" type="curve" smooth="yes"/>
      <point x="227" y="437"/>
      <point x="292" y="408"/>
      <point x="292" y="294" type="curve" smooth="yes"/>
      <point x="292" y="128" type="line" smooth="yes"/>
      <point x="292" y="88"/>
      <point x="286" y="-17"/>
    </contour>
    <contour>
      <point x="161" y="45" type="curve" smooth="yes"/>
      <point x="193" y="45"/>
      <point x="220" y="55"/>
      <point x="220" y="137" type="curve" smooth="yes"/>
      <point x="220" y="283" type="line" smooth="yes"/>
      <point x="220" y="365"/>
      <point x="193" y="374"/>
      <point x="161" y="374" type="curve" smooth="yes"/>
      <point x="129" y="374"/>
      <point x="103" y="365"/>
      <point x="103" y="283" type="curve" smooth="yes"/>
      <point x="103" y="137" type="line" smooth="yes"/>
      <point x="103" y="55"/>
      <point x="129" y="45"/>
    </contour>
  </outline>
</glyph>
<glyph name="zero.numr" format="2">
  <advance width="334"/>
  <outline>
    <contour>
      <point x="73" y="311" type="curve" smooth="yes"/>
      <point x="53" y="336"/>
      <point x="43" y="374"/>
      <point x="43" y="425" type="curve" smooth="yes"/>
      <point x="43" y="567" type="line" smooth="yes"/>
      <point x="43" y="615"/>
      <point x="53" y="652"/>
      <point x="74" y="677" type="curve" smooth="yes"/>
      <point x="95" y="702"/>
      <point x="126" y="714"/>
      <point x="167" y="714" type="curve" smooth="yes"/>
      <point x="210" y="714"/>
      <point x="242" y="701"/>
      <point x="262" y="677" type="curve" smooth="yes"/>
      <point x="282" y="653"/>
      <point x="292" y="616"/>
      <point x="292" y="567" type="curve" smooth="yes"/>
      <point x="292" y="425" type="line" smooth="yes"/>
      <point x="292" y="374"/>
      <point x="282" y="336"/>
      <point x="262" y="311" type="curve" smooth="yes"/>
      <point x="242" y="286"/>
      <point x="210" y="273"/>
      <point x="167" y="273" type="curve" smooth="yes"/>
      <point x="124" y="273"/>
      <point x="93" y="286"/>
    </contour>
    <contour>
      <point x="210" y="355" type="curve" smooth="yes"/>
      <point x="218" y="370"/>
      <point x="221" y="394"/>
      <point x="221" y="428" type="curve" smooth="yes"/>
      <point x="221" y="561" type="line" smooth="yes"/>
      <point x="221" y="594"/>
      <point x="217" y="618"/>
      <point x="209" y="632" type="curve" smooth="yes"/>
      <point x="201" y="646"/>
      <point x="187" y="653"/>
      <point x="167" y="653" type="curve" smooth="yes"/>
      <point x="147" y="653"/>
      <point x="132" y="646"/>
      <point x="124" y="632" type="curve" smooth="yes"/>
      <point x="116" y="618"/>
      <point x="113" y="594"/>
      <point x="113" y="561" type="curve" smooth="yes"/>
      <point x="113" y="428" type="line" smooth="yes"/>
      <point x="113" y="394"/>
      <point x="116" y="370"/>
      <point x="124" y="355" type="curve" smooth="yes"/>
      <point x="132" y="340"/>
      <point x="147" y="333"/>
      <point x="167" y="333" type="curve" smooth="yes"/>
      <point x="188" y="333"/>
      <point x="202" y="340"/>
    </contour>
  </outline>
</glyph>
<glyph name="zero.sups" format="2">
  <advance width="334"/>
  <outline>
    <contour>
      <point x="43" y="586" type="curve" smooth="yes"/>
      <point x="43" y="728" type="line" smooth="yes"/>
      <point x="43" y="813.008"/>
      <point x="73.402" y="874"/>
      <point x="167" y="874" type="curve" smooth="yes"/>
      <point x="262.35" y="874"/>
      <point x="292" y="815.226"/>
      <point x="292" y="728" type="curve" smooth="yes"/>
      <point x="292" y="586" type="line" smooth="yes"/>
      <point x="292" y="499.36"/>
      <point x="264.339" y="434"/>
      <point x="167" y="434" type="curve" smooth="yes"/>
      <point x="70.306" y="434"/>
      <point x="43" y="500.217"/>
    </contour>
    <contour>
      <point x="221" y="589" type="curve" smooth="yes"/>
      <point x="221" y="722" type="line" smooth="yes"/>
      <point x="221" y="761.894"/>
      <point x="219.385" y="814"/>
      <point x="167" y="814" type="curve" smooth="yes"/>
      <point x="112.862" y="814"/>
      <point x="113" y="762.933"/>
      <point x="113" y="722" type="curve" smooth="yes"/>
      <point x="113" y="589" type="line" smooth="yes"/>
      <point x="113" y="548.255"/>
      <point x="112.572" y="494"/>
      <point x="167" y="494" type="curve" smooth="yes"/>
      <point x="221.49" y="494"/>
      <point x="221" y="548.072"/>
    </contour>
  </outline>
</glyph>
